M48
;GenerationSoftware,Autodesk,EAGLE,9.3.0*%
;CreationDate,2019-03-04T08:47:43Z*%
FMAT,2
ICI,OFF
METRIC,TZ,000.000
T7C0.600
T6C0.610
T5C0.700
T4C0.800
T3C1.778
T2C2.000
T1C3.200
%
G90
M71
T1
X67973Y49813
X23000Y34000
X50000Y81000
X61000Y3000
X95000Y3000
X5000Y3000
T2
X77651Y32474
X91452Y7776
X87452Y14704
X47548Y75704
X43548Y68776
X11000Y3520
X19000Y3520
X73321Y29974
X36251Y48160
X83000Y3000
X89000Y3000
X8366Y8242
X11366Y13438
X53000Y76000
X56000Y70804
X39938Y2402
X39938Y7402
X31921Y50660
T3
X30140Y34620
X30140Y19380
X70780Y19380
X70780Y34620
T4
X50460Y19380
X50460Y34620
X47920Y19380
X45380Y19380
X42840Y19380
X40300Y19380
X37760Y19380
X35220Y19380
X32680Y19380
X32680Y34620
X35220Y34620
X37760Y34620
X40300Y34620
X42840Y34620
X45380Y34620
X47920Y34620
X53000Y19380
X53000Y34620
X55540Y34620
X58080Y34620
X60620Y34620
X63160Y34620
X65700Y34620
X68240Y34620
X68240Y19380
X65700Y19380
X63160Y19380
X60620Y19380
X58080Y19380
X55540Y19380
T5
X83213Y9486
X13400Y9800
X14200Y8500
X15000Y9800
X15800Y8500
X16600Y9800
X51787Y70486
X50261Y70443
X50987Y69100
X49461Y69057
X50187Y67714
X84813Y6714
X85539Y8057
X84013Y8100
X84739Y9443
T6
X63024Y31750
X20003Y8731
X30321Y45085
X55880Y67786
X81915Y6509
X35084Y8096
X24765Y8096
X48419Y49847
X40799Y50482
X22225Y24606
X47625Y3969
X65087Y29686
X29210Y43180
X54451Y45244
T7
X26000Y9500
M30