G04 EAGLE Gerber RS-274X export*
G75*
%MOMM*%
%FSLAX34Y34*%
%LPD*%
%INSilk top*%
%IPPOS*%
%AMOC8*
5,1,8,0,0,1.08239X$1,22.5*%
G01*
%ADD10C,0.406400*%
%ADD11C,0.000000*%
%ADD12C,0.279400*%
%ADD13C,0.609600*%
%ADD14C,0.152400*%
%ADD15C,0.203200*%
%ADD16R,13.000000X5.500000*%
%ADD17C,0.254000*%


D10*
X0Y0D02*
X1000000Y0D01*
X0Y0D02*
X500000Y870000D01*
X1000000Y0D01*
D11*
X820000Y30000D02*
X820003Y30245D01*
X820012Y30491D01*
X820027Y30736D01*
X820048Y30980D01*
X820075Y31224D01*
X820108Y31467D01*
X820147Y31710D01*
X820192Y31951D01*
X820243Y32191D01*
X820300Y32430D01*
X820362Y32667D01*
X820431Y32903D01*
X820505Y33137D01*
X820585Y33369D01*
X820670Y33599D01*
X820761Y33827D01*
X820858Y34052D01*
X820960Y34276D01*
X821068Y34496D01*
X821181Y34714D01*
X821299Y34929D01*
X821423Y35141D01*
X821551Y35350D01*
X821685Y35556D01*
X821824Y35758D01*
X821968Y35957D01*
X822117Y36152D01*
X822270Y36344D01*
X822428Y36532D01*
X822590Y36716D01*
X822758Y36895D01*
X822929Y37071D01*
X823105Y37242D01*
X823284Y37410D01*
X823468Y37572D01*
X823656Y37730D01*
X823848Y37883D01*
X824043Y38032D01*
X824242Y38176D01*
X824444Y38315D01*
X824650Y38449D01*
X824859Y38577D01*
X825071Y38701D01*
X825286Y38819D01*
X825504Y38932D01*
X825724Y39040D01*
X825948Y39142D01*
X826173Y39239D01*
X826401Y39330D01*
X826631Y39415D01*
X826863Y39495D01*
X827097Y39569D01*
X827333Y39638D01*
X827570Y39700D01*
X827809Y39757D01*
X828049Y39808D01*
X828290Y39853D01*
X828533Y39892D01*
X828776Y39925D01*
X829020Y39952D01*
X829264Y39973D01*
X829509Y39988D01*
X829755Y39997D01*
X830000Y40000D01*
X830245Y39997D01*
X830491Y39988D01*
X830736Y39973D01*
X830980Y39952D01*
X831224Y39925D01*
X831467Y39892D01*
X831710Y39853D01*
X831951Y39808D01*
X832191Y39757D01*
X832430Y39700D01*
X832667Y39638D01*
X832903Y39569D01*
X833137Y39495D01*
X833369Y39415D01*
X833599Y39330D01*
X833827Y39239D01*
X834052Y39142D01*
X834276Y39040D01*
X834496Y38932D01*
X834714Y38819D01*
X834929Y38701D01*
X835141Y38577D01*
X835350Y38449D01*
X835556Y38315D01*
X835758Y38176D01*
X835957Y38032D01*
X836152Y37883D01*
X836344Y37730D01*
X836532Y37572D01*
X836716Y37410D01*
X836895Y37242D01*
X837071Y37071D01*
X837242Y36895D01*
X837410Y36716D01*
X837572Y36532D01*
X837730Y36344D01*
X837883Y36152D01*
X838032Y35957D01*
X838176Y35758D01*
X838315Y35556D01*
X838449Y35350D01*
X838577Y35141D01*
X838701Y34929D01*
X838819Y34714D01*
X838932Y34496D01*
X839040Y34276D01*
X839142Y34052D01*
X839239Y33827D01*
X839330Y33599D01*
X839415Y33369D01*
X839495Y33137D01*
X839569Y32903D01*
X839638Y32667D01*
X839700Y32430D01*
X839757Y32191D01*
X839808Y31951D01*
X839853Y31710D01*
X839892Y31467D01*
X839925Y31224D01*
X839952Y30980D01*
X839973Y30736D01*
X839988Y30491D01*
X839997Y30245D01*
X840000Y30000D01*
X839997Y29755D01*
X839988Y29509D01*
X839973Y29264D01*
X839952Y29020D01*
X839925Y28776D01*
X839892Y28533D01*
X839853Y28290D01*
X839808Y28049D01*
X839757Y27809D01*
X839700Y27570D01*
X839638Y27333D01*
X839569Y27097D01*
X839495Y26863D01*
X839415Y26631D01*
X839330Y26401D01*
X839239Y26173D01*
X839142Y25948D01*
X839040Y25724D01*
X838932Y25504D01*
X838819Y25286D01*
X838701Y25071D01*
X838577Y24859D01*
X838449Y24650D01*
X838315Y24444D01*
X838176Y24242D01*
X838032Y24043D01*
X837883Y23848D01*
X837730Y23656D01*
X837572Y23468D01*
X837410Y23284D01*
X837242Y23105D01*
X837071Y22929D01*
X836895Y22758D01*
X836716Y22590D01*
X836532Y22428D01*
X836344Y22270D01*
X836152Y22117D01*
X835957Y21968D01*
X835758Y21824D01*
X835556Y21685D01*
X835350Y21551D01*
X835141Y21423D01*
X834929Y21299D01*
X834714Y21181D01*
X834496Y21068D01*
X834276Y20960D01*
X834052Y20858D01*
X833827Y20761D01*
X833599Y20670D01*
X833369Y20585D01*
X833137Y20505D01*
X832903Y20431D01*
X832667Y20362D01*
X832430Y20300D01*
X832191Y20243D01*
X831951Y20192D01*
X831710Y20147D01*
X831467Y20108D01*
X831224Y20075D01*
X830980Y20048D01*
X830736Y20027D01*
X830491Y20012D01*
X830245Y20003D01*
X830000Y20000D01*
X829755Y20003D01*
X829509Y20012D01*
X829264Y20027D01*
X829020Y20048D01*
X828776Y20075D01*
X828533Y20108D01*
X828290Y20147D01*
X828049Y20192D01*
X827809Y20243D01*
X827570Y20300D01*
X827333Y20362D01*
X827097Y20431D01*
X826863Y20505D01*
X826631Y20585D01*
X826401Y20670D01*
X826173Y20761D01*
X825948Y20858D01*
X825724Y20960D01*
X825504Y21068D01*
X825286Y21181D01*
X825071Y21299D01*
X824859Y21423D01*
X824650Y21551D01*
X824444Y21685D01*
X824242Y21824D01*
X824043Y21968D01*
X823848Y22117D01*
X823656Y22270D01*
X823468Y22428D01*
X823284Y22590D01*
X823105Y22758D01*
X822929Y22929D01*
X822758Y23105D01*
X822590Y23284D01*
X822428Y23468D01*
X822270Y23656D01*
X822117Y23848D01*
X821968Y24043D01*
X821824Y24242D01*
X821685Y24444D01*
X821551Y24650D01*
X821423Y24859D01*
X821299Y25071D01*
X821181Y25286D01*
X821068Y25504D01*
X820960Y25724D01*
X820858Y25948D01*
X820761Y26173D01*
X820670Y26401D01*
X820585Y26631D01*
X820505Y26863D01*
X820431Y27097D01*
X820362Y27333D01*
X820300Y27570D01*
X820243Y27809D01*
X820192Y28049D01*
X820147Y28290D01*
X820108Y28533D01*
X820075Y28776D01*
X820048Y29020D01*
X820027Y29264D01*
X820012Y29509D01*
X820003Y29755D01*
X820000Y30000D01*
X880000Y30000D02*
X880003Y30245D01*
X880012Y30491D01*
X880027Y30736D01*
X880048Y30980D01*
X880075Y31224D01*
X880108Y31467D01*
X880147Y31710D01*
X880192Y31951D01*
X880243Y32191D01*
X880300Y32430D01*
X880362Y32667D01*
X880431Y32903D01*
X880505Y33137D01*
X880585Y33369D01*
X880670Y33599D01*
X880761Y33827D01*
X880858Y34052D01*
X880960Y34276D01*
X881068Y34496D01*
X881181Y34714D01*
X881299Y34929D01*
X881423Y35141D01*
X881551Y35350D01*
X881685Y35556D01*
X881824Y35758D01*
X881968Y35957D01*
X882117Y36152D01*
X882270Y36344D01*
X882428Y36532D01*
X882590Y36716D01*
X882758Y36895D01*
X882929Y37071D01*
X883105Y37242D01*
X883284Y37410D01*
X883468Y37572D01*
X883656Y37730D01*
X883848Y37883D01*
X884043Y38032D01*
X884242Y38176D01*
X884444Y38315D01*
X884650Y38449D01*
X884859Y38577D01*
X885071Y38701D01*
X885286Y38819D01*
X885504Y38932D01*
X885724Y39040D01*
X885948Y39142D01*
X886173Y39239D01*
X886401Y39330D01*
X886631Y39415D01*
X886863Y39495D01*
X887097Y39569D01*
X887333Y39638D01*
X887570Y39700D01*
X887809Y39757D01*
X888049Y39808D01*
X888290Y39853D01*
X888533Y39892D01*
X888776Y39925D01*
X889020Y39952D01*
X889264Y39973D01*
X889509Y39988D01*
X889755Y39997D01*
X890000Y40000D01*
X890245Y39997D01*
X890491Y39988D01*
X890736Y39973D01*
X890980Y39952D01*
X891224Y39925D01*
X891467Y39892D01*
X891710Y39853D01*
X891951Y39808D01*
X892191Y39757D01*
X892430Y39700D01*
X892667Y39638D01*
X892903Y39569D01*
X893137Y39495D01*
X893369Y39415D01*
X893599Y39330D01*
X893827Y39239D01*
X894052Y39142D01*
X894276Y39040D01*
X894496Y38932D01*
X894714Y38819D01*
X894929Y38701D01*
X895141Y38577D01*
X895350Y38449D01*
X895556Y38315D01*
X895758Y38176D01*
X895957Y38032D01*
X896152Y37883D01*
X896344Y37730D01*
X896532Y37572D01*
X896716Y37410D01*
X896895Y37242D01*
X897071Y37071D01*
X897242Y36895D01*
X897410Y36716D01*
X897572Y36532D01*
X897730Y36344D01*
X897883Y36152D01*
X898032Y35957D01*
X898176Y35758D01*
X898315Y35556D01*
X898449Y35350D01*
X898577Y35141D01*
X898701Y34929D01*
X898819Y34714D01*
X898932Y34496D01*
X899040Y34276D01*
X899142Y34052D01*
X899239Y33827D01*
X899330Y33599D01*
X899415Y33369D01*
X899495Y33137D01*
X899569Y32903D01*
X899638Y32667D01*
X899700Y32430D01*
X899757Y32191D01*
X899808Y31951D01*
X899853Y31710D01*
X899892Y31467D01*
X899925Y31224D01*
X899952Y30980D01*
X899973Y30736D01*
X899988Y30491D01*
X899997Y30245D01*
X900000Y30000D01*
X899997Y29755D01*
X899988Y29509D01*
X899973Y29264D01*
X899952Y29020D01*
X899925Y28776D01*
X899892Y28533D01*
X899853Y28290D01*
X899808Y28049D01*
X899757Y27809D01*
X899700Y27570D01*
X899638Y27333D01*
X899569Y27097D01*
X899495Y26863D01*
X899415Y26631D01*
X899330Y26401D01*
X899239Y26173D01*
X899142Y25948D01*
X899040Y25724D01*
X898932Y25504D01*
X898819Y25286D01*
X898701Y25071D01*
X898577Y24859D01*
X898449Y24650D01*
X898315Y24444D01*
X898176Y24242D01*
X898032Y24043D01*
X897883Y23848D01*
X897730Y23656D01*
X897572Y23468D01*
X897410Y23284D01*
X897242Y23105D01*
X897071Y22929D01*
X896895Y22758D01*
X896716Y22590D01*
X896532Y22428D01*
X896344Y22270D01*
X896152Y22117D01*
X895957Y21968D01*
X895758Y21824D01*
X895556Y21685D01*
X895350Y21551D01*
X895141Y21423D01*
X894929Y21299D01*
X894714Y21181D01*
X894496Y21068D01*
X894276Y20960D01*
X894052Y20858D01*
X893827Y20761D01*
X893599Y20670D01*
X893369Y20585D01*
X893137Y20505D01*
X892903Y20431D01*
X892667Y20362D01*
X892430Y20300D01*
X892191Y20243D01*
X891951Y20192D01*
X891710Y20147D01*
X891467Y20108D01*
X891224Y20075D01*
X890980Y20048D01*
X890736Y20027D01*
X890491Y20012D01*
X890245Y20003D01*
X890000Y20000D01*
X889755Y20003D01*
X889509Y20012D01*
X889264Y20027D01*
X889020Y20048D01*
X888776Y20075D01*
X888533Y20108D01*
X888290Y20147D01*
X888049Y20192D01*
X887809Y20243D01*
X887570Y20300D01*
X887333Y20362D01*
X887097Y20431D01*
X886863Y20505D01*
X886631Y20585D01*
X886401Y20670D01*
X886173Y20761D01*
X885948Y20858D01*
X885724Y20960D01*
X885504Y21068D01*
X885286Y21181D01*
X885071Y21299D01*
X884859Y21423D01*
X884650Y21551D01*
X884444Y21685D01*
X884242Y21824D01*
X884043Y21968D01*
X883848Y22117D01*
X883656Y22270D01*
X883468Y22428D01*
X883284Y22590D01*
X883105Y22758D01*
X882929Y22929D01*
X882758Y23105D01*
X882590Y23284D01*
X882428Y23468D01*
X882270Y23656D01*
X882117Y23848D01*
X881968Y24043D01*
X881824Y24242D01*
X881685Y24444D01*
X881551Y24650D01*
X881423Y24859D01*
X881299Y25071D01*
X881181Y25286D01*
X881068Y25504D01*
X880960Y25724D01*
X880858Y25948D01*
X880761Y26173D01*
X880670Y26401D01*
X880585Y26631D01*
X880505Y26863D01*
X880431Y27097D01*
X880362Y27333D01*
X880300Y27570D01*
X880243Y27809D01*
X880192Y28049D01*
X880147Y28290D01*
X880108Y28533D01*
X880075Y28776D01*
X880048Y29020D01*
X880027Y29264D01*
X880012Y29509D01*
X880003Y29755D01*
X880000Y30000D01*
X73660Y82417D02*
X73663Y82662D01*
X73672Y82908D01*
X73687Y83153D01*
X73708Y83397D01*
X73735Y83641D01*
X73768Y83884D01*
X73807Y84127D01*
X73852Y84368D01*
X73903Y84608D01*
X73960Y84847D01*
X74022Y85084D01*
X74091Y85320D01*
X74165Y85554D01*
X74245Y85786D01*
X74330Y86016D01*
X74421Y86244D01*
X74518Y86469D01*
X74620Y86693D01*
X74728Y86913D01*
X74841Y87131D01*
X74959Y87346D01*
X75083Y87558D01*
X75211Y87767D01*
X75345Y87973D01*
X75484Y88175D01*
X75628Y88374D01*
X75777Y88569D01*
X75930Y88761D01*
X76088Y88949D01*
X76250Y89133D01*
X76418Y89312D01*
X76589Y89488D01*
X76765Y89659D01*
X76944Y89827D01*
X77128Y89989D01*
X77316Y90147D01*
X77508Y90300D01*
X77703Y90449D01*
X77902Y90593D01*
X78104Y90732D01*
X78310Y90866D01*
X78519Y90994D01*
X78731Y91118D01*
X78946Y91236D01*
X79164Y91349D01*
X79384Y91457D01*
X79608Y91559D01*
X79833Y91656D01*
X80061Y91747D01*
X80291Y91832D01*
X80523Y91912D01*
X80757Y91986D01*
X80993Y92055D01*
X81230Y92117D01*
X81469Y92174D01*
X81709Y92225D01*
X81950Y92270D01*
X82193Y92309D01*
X82436Y92342D01*
X82680Y92369D01*
X82924Y92390D01*
X83169Y92405D01*
X83415Y92414D01*
X83660Y92417D01*
X83905Y92414D01*
X84151Y92405D01*
X84396Y92390D01*
X84640Y92369D01*
X84884Y92342D01*
X85127Y92309D01*
X85370Y92270D01*
X85611Y92225D01*
X85851Y92174D01*
X86090Y92117D01*
X86327Y92055D01*
X86563Y91986D01*
X86797Y91912D01*
X87029Y91832D01*
X87259Y91747D01*
X87487Y91656D01*
X87712Y91559D01*
X87936Y91457D01*
X88156Y91349D01*
X88374Y91236D01*
X88589Y91118D01*
X88801Y90994D01*
X89010Y90866D01*
X89216Y90732D01*
X89418Y90593D01*
X89617Y90449D01*
X89812Y90300D01*
X90004Y90147D01*
X90192Y89989D01*
X90376Y89827D01*
X90555Y89659D01*
X90731Y89488D01*
X90902Y89312D01*
X91070Y89133D01*
X91232Y88949D01*
X91390Y88761D01*
X91543Y88569D01*
X91692Y88374D01*
X91836Y88175D01*
X91975Y87973D01*
X92109Y87767D01*
X92237Y87558D01*
X92361Y87346D01*
X92479Y87131D01*
X92592Y86913D01*
X92700Y86693D01*
X92802Y86469D01*
X92899Y86244D01*
X92990Y86016D01*
X93075Y85786D01*
X93155Y85554D01*
X93229Y85320D01*
X93298Y85084D01*
X93360Y84847D01*
X93417Y84608D01*
X93468Y84368D01*
X93513Y84127D01*
X93552Y83884D01*
X93585Y83641D01*
X93612Y83397D01*
X93633Y83153D01*
X93648Y82908D01*
X93657Y82662D01*
X93660Y82417D01*
X93657Y82172D01*
X93648Y81926D01*
X93633Y81681D01*
X93612Y81437D01*
X93585Y81193D01*
X93552Y80950D01*
X93513Y80707D01*
X93468Y80466D01*
X93417Y80226D01*
X93360Y79987D01*
X93298Y79750D01*
X93229Y79514D01*
X93155Y79280D01*
X93075Y79048D01*
X92990Y78818D01*
X92899Y78590D01*
X92802Y78365D01*
X92700Y78141D01*
X92592Y77921D01*
X92479Y77703D01*
X92361Y77488D01*
X92237Y77276D01*
X92109Y77067D01*
X91975Y76861D01*
X91836Y76659D01*
X91692Y76460D01*
X91543Y76265D01*
X91390Y76073D01*
X91232Y75885D01*
X91070Y75701D01*
X90902Y75522D01*
X90731Y75346D01*
X90555Y75175D01*
X90376Y75007D01*
X90192Y74845D01*
X90004Y74687D01*
X89812Y74534D01*
X89617Y74385D01*
X89418Y74241D01*
X89216Y74102D01*
X89010Y73968D01*
X88801Y73840D01*
X88589Y73716D01*
X88374Y73598D01*
X88156Y73485D01*
X87936Y73377D01*
X87712Y73275D01*
X87487Y73178D01*
X87259Y73087D01*
X87029Y73002D01*
X86797Y72922D01*
X86563Y72848D01*
X86327Y72779D01*
X86090Y72717D01*
X85851Y72660D01*
X85611Y72609D01*
X85370Y72564D01*
X85127Y72525D01*
X84884Y72492D01*
X84640Y72465D01*
X84396Y72444D01*
X84151Y72429D01*
X83905Y72420D01*
X83660Y72417D01*
X83415Y72420D01*
X83169Y72429D01*
X82924Y72444D01*
X82680Y72465D01*
X82436Y72492D01*
X82193Y72525D01*
X81950Y72564D01*
X81709Y72609D01*
X81469Y72660D01*
X81230Y72717D01*
X80993Y72779D01*
X80757Y72848D01*
X80523Y72922D01*
X80291Y73002D01*
X80061Y73087D01*
X79833Y73178D01*
X79608Y73275D01*
X79384Y73377D01*
X79164Y73485D01*
X78946Y73598D01*
X78731Y73716D01*
X78519Y73840D01*
X78310Y73968D01*
X78104Y74102D01*
X77902Y74241D01*
X77703Y74385D01*
X77508Y74534D01*
X77316Y74687D01*
X77128Y74845D01*
X76944Y75007D01*
X76765Y75175D01*
X76589Y75346D01*
X76418Y75522D01*
X76250Y75701D01*
X76088Y75885D01*
X75930Y76073D01*
X75777Y76265D01*
X75628Y76460D01*
X75484Y76659D01*
X75345Y76861D01*
X75211Y77067D01*
X75083Y77276D01*
X74959Y77488D01*
X74841Y77703D01*
X74728Y77921D01*
X74620Y78141D01*
X74518Y78365D01*
X74421Y78590D01*
X74330Y78818D01*
X74245Y79048D01*
X74165Y79280D01*
X74091Y79514D01*
X74022Y79750D01*
X73960Y79987D01*
X73903Y80226D01*
X73852Y80466D01*
X73807Y80707D01*
X73768Y80950D01*
X73735Y81193D01*
X73708Y81437D01*
X73687Y81681D01*
X73672Y81926D01*
X73663Y82172D01*
X73660Y82417D01*
X103660Y134378D02*
X103663Y134623D01*
X103672Y134869D01*
X103687Y135114D01*
X103708Y135358D01*
X103735Y135602D01*
X103768Y135845D01*
X103807Y136088D01*
X103852Y136329D01*
X103903Y136569D01*
X103960Y136808D01*
X104022Y137045D01*
X104091Y137281D01*
X104165Y137515D01*
X104245Y137747D01*
X104330Y137977D01*
X104421Y138205D01*
X104518Y138430D01*
X104620Y138654D01*
X104728Y138874D01*
X104841Y139092D01*
X104959Y139307D01*
X105083Y139519D01*
X105211Y139728D01*
X105345Y139934D01*
X105484Y140136D01*
X105628Y140335D01*
X105777Y140530D01*
X105930Y140722D01*
X106088Y140910D01*
X106250Y141094D01*
X106418Y141273D01*
X106589Y141449D01*
X106765Y141620D01*
X106944Y141788D01*
X107128Y141950D01*
X107316Y142108D01*
X107508Y142261D01*
X107703Y142410D01*
X107902Y142554D01*
X108104Y142693D01*
X108310Y142827D01*
X108519Y142955D01*
X108731Y143079D01*
X108946Y143197D01*
X109164Y143310D01*
X109384Y143418D01*
X109608Y143520D01*
X109833Y143617D01*
X110061Y143708D01*
X110291Y143793D01*
X110523Y143873D01*
X110757Y143947D01*
X110993Y144016D01*
X111230Y144078D01*
X111469Y144135D01*
X111709Y144186D01*
X111950Y144231D01*
X112193Y144270D01*
X112436Y144303D01*
X112680Y144330D01*
X112924Y144351D01*
X113169Y144366D01*
X113415Y144375D01*
X113660Y144378D01*
X113905Y144375D01*
X114151Y144366D01*
X114396Y144351D01*
X114640Y144330D01*
X114884Y144303D01*
X115127Y144270D01*
X115370Y144231D01*
X115611Y144186D01*
X115851Y144135D01*
X116090Y144078D01*
X116327Y144016D01*
X116563Y143947D01*
X116797Y143873D01*
X117029Y143793D01*
X117259Y143708D01*
X117487Y143617D01*
X117712Y143520D01*
X117936Y143418D01*
X118156Y143310D01*
X118374Y143197D01*
X118589Y143079D01*
X118801Y142955D01*
X119010Y142827D01*
X119216Y142693D01*
X119418Y142554D01*
X119617Y142410D01*
X119812Y142261D01*
X120004Y142108D01*
X120192Y141950D01*
X120376Y141788D01*
X120555Y141620D01*
X120731Y141449D01*
X120902Y141273D01*
X121070Y141094D01*
X121232Y140910D01*
X121390Y140722D01*
X121543Y140530D01*
X121692Y140335D01*
X121836Y140136D01*
X121975Y139934D01*
X122109Y139728D01*
X122237Y139519D01*
X122361Y139307D01*
X122479Y139092D01*
X122592Y138874D01*
X122700Y138654D01*
X122802Y138430D01*
X122899Y138205D01*
X122990Y137977D01*
X123075Y137747D01*
X123155Y137515D01*
X123229Y137281D01*
X123298Y137045D01*
X123360Y136808D01*
X123417Y136569D01*
X123468Y136329D01*
X123513Y136088D01*
X123552Y135845D01*
X123585Y135602D01*
X123612Y135358D01*
X123633Y135114D01*
X123648Y134869D01*
X123657Y134623D01*
X123660Y134378D01*
X123657Y134133D01*
X123648Y133887D01*
X123633Y133642D01*
X123612Y133398D01*
X123585Y133154D01*
X123552Y132911D01*
X123513Y132668D01*
X123468Y132427D01*
X123417Y132187D01*
X123360Y131948D01*
X123298Y131711D01*
X123229Y131475D01*
X123155Y131241D01*
X123075Y131009D01*
X122990Y130779D01*
X122899Y130551D01*
X122802Y130326D01*
X122700Y130102D01*
X122592Y129882D01*
X122479Y129664D01*
X122361Y129449D01*
X122237Y129237D01*
X122109Y129028D01*
X121975Y128822D01*
X121836Y128620D01*
X121692Y128421D01*
X121543Y128226D01*
X121390Y128034D01*
X121232Y127846D01*
X121070Y127662D01*
X120902Y127483D01*
X120731Y127307D01*
X120555Y127136D01*
X120376Y126968D01*
X120192Y126806D01*
X120004Y126648D01*
X119812Y126495D01*
X119617Y126346D01*
X119418Y126202D01*
X119216Y126063D01*
X119010Y125929D01*
X118801Y125801D01*
X118589Y125677D01*
X118374Y125559D01*
X118156Y125446D01*
X117936Y125338D01*
X117712Y125236D01*
X117487Y125139D01*
X117259Y125048D01*
X117029Y124963D01*
X116797Y124883D01*
X116563Y124809D01*
X116327Y124740D01*
X116090Y124678D01*
X115851Y124621D01*
X115611Y124570D01*
X115370Y124525D01*
X115127Y124486D01*
X114884Y124453D01*
X114640Y124426D01*
X114396Y124405D01*
X114151Y124390D01*
X113905Y124381D01*
X113660Y124378D01*
X113415Y124381D01*
X113169Y124390D01*
X112924Y124405D01*
X112680Y124426D01*
X112436Y124453D01*
X112193Y124486D01*
X111950Y124525D01*
X111709Y124570D01*
X111469Y124621D01*
X111230Y124678D01*
X110993Y124740D01*
X110757Y124809D01*
X110523Y124883D01*
X110291Y124963D01*
X110061Y125048D01*
X109833Y125139D01*
X109608Y125236D01*
X109384Y125338D01*
X109164Y125446D01*
X108946Y125559D01*
X108731Y125677D01*
X108519Y125801D01*
X108310Y125929D01*
X108104Y126063D01*
X107902Y126202D01*
X107703Y126346D01*
X107508Y126495D01*
X107316Y126648D01*
X107128Y126806D01*
X106944Y126968D01*
X106765Y127136D01*
X106589Y127307D01*
X106418Y127483D01*
X106250Y127662D01*
X106088Y127846D01*
X105930Y128034D01*
X105777Y128226D01*
X105628Y128421D01*
X105484Y128620D01*
X105345Y128822D01*
X105211Y129028D01*
X105083Y129237D01*
X104959Y129449D01*
X104841Y129664D01*
X104728Y129882D01*
X104620Y130102D01*
X104518Y130326D01*
X104421Y130551D01*
X104330Y130779D01*
X104245Y131009D01*
X104165Y131241D01*
X104091Y131475D01*
X104022Y131711D01*
X103960Y131948D01*
X103903Y132187D01*
X103852Y132427D01*
X103807Y132668D01*
X103768Y132911D01*
X103735Y133154D01*
X103708Y133398D01*
X103687Y133642D01*
X103672Y133887D01*
X103663Y134133D01*
X103660Y134378D01*
X520000Y760000D02*
X520003Y760245D01*
X520012Y760491D01*
X520027Y760736D01*
X520048Y760980D01*
X520075Y761224D01*
X520108Y761467D01*
X520147Y761710D01*
X520192Y761951D01*
X520243Y762191D01*
X520300Y762430D01*
X520362Y762667D01*
X520431Y762903D01*
X520505Y763137D01*
X520585Y763369D01*
X520670Y763599D01*
X520761Y763827D01*
X520858Y764052D01*
X520960Y764276D01*
X521068Y764496D01*
X521181Y764714D01*
X521299Y764929D01*
X521423Y765141D01*
X521551Y765350D01*
X521685Y765556D01*
X521824Y765758D01*
X521968Y765957D01*
X522117Y766152D01*
X522270Y766344D01*
X522428Y766532D01*
X522590Y766716D01*
X522758Y766895D01*
X522929Y767071D01*
X523105Y767242D01*
X523284Y767410D01*
X523468Y767572D01*
X523656Y767730D01*
X523848Y767883D01*
X524043Y768032D01*
X524242Y768176D01*
X524444Y768315D01*
X524650Y768449D01*
X524859Y768577D01*
X525071Y768701D01*
X525286Y768819D01*
X525504Y768932D01*
X525724Y769040D01*
X525948Y769142D01*
X526173Y769239D01*
X526401Y769330D01*
X526631Y769415D01*
X526863Y769495D01*
X527097Y769569D01*
X527333Y769638D01*
X527570Y769700D01*
X527809Y769757D01*
X528049Y769808D01*
X528290Y769853D01*
X528533Y769892D01*
X528776Y769925D01*
X529020Y769952D01*
X529264Y769973D01*
X529509Y769988D01*
X529755Y769997D01*
X530000Y770000D01*
X530245Y769997D01*
X530491Y769988D01*
X530736Y769973D01*
X530980Y769952D01*
X531224Y769925D01*
X531467Y769892D01*
X531710Y769853D01*
X531951Y769808D01*
X532191Y769757D01*
X532430Y769700D01*
X532667Y769638D01*
X532903Y769569D01*
X533137Y769495D01*
X533369Y769415D01*
X533599Y769330D01*
X533827Y769239D01*
X534052Y769142D01*
X534276Y769040D01*
X534496Y768932D01*
X534714Y768819D01*
X534929Y768701D01*
X535141Y768577D01*
X535350Y768449D01*
X535556Y768315D01*
X535758Y768176D01*
X535957Y768032D01*
X536152Y767883D01*
X536344Y767730D01*
X536532Y767572D01*
X536716Y767410D01*
X536895Y767242D01*
X537071Y767071D01*
X537242Y766895D01*
X537410Y766716D01*
X537572Y766532D01*
X537730Y766344D01*
X537883Y766152D01*
X538032Y765957D01*
X538176Y765758D01*
X538315Y765556D01*
X538449Y765350D01*
X538577Y765141D01*
X538701Y764929D01*
X538819Y764714D01*
X538932Y764496D01*
X539040Y764276D01*
X539142Y764052D01*
X539239Y763827D01*
X539330Y763599D01*
X539415Y763369D01*
X539495Y763137D01*
X539569Y762903D01*
X539638Y762667D01*
X539700Y762430D01*
X539757Y762191D01*
X539808Y761951D01*
X539853Y761710D01*
X539892Y761467D01*
X539925Y761224D01*
X539952Y760980D01*
X539973Y760736D01*
X539988Y760491D01*
X539997Y760245D01*
X540000Y760000D01*
X539997Y759755D01*
X539988Y759509D01*
X539973Y759264D01*
X539952Y759020D01*
X539925Y758776D01*
X539892Y758533D01*
X539853Y758290D01*
X539808Y758049D01*
X539757Y757809D01*
X539700Y757570D01*
X539638Y757333D01*
X539569Y757097D01*
X539495Y756863D01*
X539415Y756631D01*
X539330Y756401D01*
X539239Y756173D01*
X539142Y755948D01*
X539040Y755724D01*
X538932Y755504D01*
X538819Y755286D01*
X538701Y755071D01*
X538577Y754859D01*
X538449Y754650D01*
X538315Y754444D01*
X538176Y754242D01*
X538032Y754043D01*
X537883Y753848D01*
X537730Y753656D01*
X537572Y753468D01*
X537410Y753284D01*
X537242Y753105D01*
X537071Y752929D01*
X536895Y752758D01*
X536716Y752590D01*
X536532Y752428D01*
X536344Y752270D01*
X536152Y752117D01*
X535957Y751968D01*
X535758Y751824D01*
X535556Y751685D01*
X535350Y751551D01*
X535141Y751423D01*
X534929Y751299D01*
X534714Y751181D01*
X534496Y751068D01*
X534276Y750960D01*
X534052Y750858D01*
X533827Y750761D01*
X533599Y750670D01*
X533369Y750585D01*
X533137Y750505D01*
X532903Y750431D01*
X532667Y750362D01*
X532430Y750300D01*
X532191Y750243D01*
X531951Y750192D01*
X531710Y750147D01*
X531467Y750108D01*
X531224Y750075D01*
X530980Y750048D01*
X530736Y750027D01*
X530491Y750012D01*
X530245Y750003D01*
X530000Y750000D01*
X529755Y750003D01*
X529509Y750012D01*
X529264Y750027D01*
X529020Y750048D01*
X528776Y750075D01*
X528533Y750108D01*
X528290Y750147D01*
X528049Y750192D01*
X527809Y750243D01*
X527570Y750300D01*
X527333Y750362D01*
X527097Y750431D01*
X526863Y750505D01*
X526631Y750585D01*
X526401Y750670D01*
X526173Y750761D01*
X525948Y750858D01*
X525724Y750960D01*
X525504Y751068D01*
X525286Y751181D01*
X525071Y751299D01*
X524859Y751423D01*
X524650Y751551D01*
X524444Y751685D01*
X524242Y751824D01*
X524043Y751968D01*
X523848Y752117D01*
X523656Y752270D01*
X523468Y752428D01*
X523284Y752590D01*
X523105Y752758D01*
X522929Y752929D01*
X522758Y753105D01*
X522590Y753284D01*
X522428Y753468D01*
X522270Y753656D01*
X522117Y753848D01*
X521968Y754043D01*
X521824Y754242D01*
X521685Y754444D01*
X521551Y754650D01*
X521423Y754859D01*
X521299Y755071D01*
X521181Y755286D01*
X521068Y755504D01*
X520960Y755724D01*
X520858Y755948D01*
X520761Y756173D01*
X520670Y756401D01*
X520585Y756631D01*
X520505Y756863D01*
X520431Y757097D01*
X520362Y757333D01*
X520300Y757570D01*
X520243Y757809D01*
X520192Y758049D01*
X520147Y758290D01*
X520108Y758533D01*
X520075Y758776D01*
X520048Y759020D01*
X520027Y759264D01*
X520012Y759509D01*
X520003Y759755D01*
X520000Y760000D01*
X550000Y708038D02*
X550003Y708283D01*
X550012Y708529D01*
X550027Y708774D01*
X550048Y709018D01*
X550075Y709262D01*
X550108Y709505D01*
X550147Y709748D01*
X550192Y709989D01*
X550243Y710229D01*
X550300Y710468D01*
X550362Y710705D01*
X550431Y710941D01*
X550505Y711175D01*
X550585Y711407D01*
X550670Y711637D01*
X550761Y711865D01*
X550858Y712090D01*
X550960Y712314D01*
X551068Y712534D01*
X551181Y712752D01*
X551299Y712967D01*
X551423Y713179D01*
X551551Y713388D01*
X551685Y713594D01*
X551824Y713796D01*
X551968Y713995D01*
X552117Y714190D01*
X552270Y714382D01*
X552428Y714570D01*
X552590Y714754D01*
X552758Y714933D01*
X552929Y715109D01*
X553105Y715280D01*
X553284Y715448D01*
X553468Y715610D01*
X553656Y715768D01*
X553848Y715921D01*
X554043Y716070D01*
X554242Y716214D01*
X554444Y716353D01*
X554650Y716487D01*
X554859Y716615D01*
X555071Y716739D01*
X555286Y716857D01*
X555504Y716970D01*
X555724Y717078D01*
X555948Y717180D01*
X556173Y717277D01*
X556401Y717368D01*
X556631Y717453D01*
X556863Y717533D01*
X557097Y717607D01*
X557333Y717676D01*
X557570Y717738D01*
X557809Y717795D01*
X558049Y717846D01*
X558290Y717891D01*
X558533Y717930D01*
X558776Y717963D01*
X559020Y717990D01*
X559264Y718011D01*
X559509Y718026D01*
X559755Y718035D01*
X560000Y718038D01*
X560245Y718035D01*
X560491Y718026D01*
X560736Y718011D01*
X560980Y717990D01*
X561224Y717963D01*
X561467Y717930D01*
X561710Y717891D01*
X561951Y717846D01*
X562191Y717795D01*
X562430Y717738D01*
X562667Y717676D01*
X562903Y717607D01*
X563137Y717533D01*
X563369Y717453D01*
X563599Y717368D01*
X563827Y717277D01*
X564052Y717180D01*
X564276Y717078D01*
X564496Y716970D01*
X564714Y716857D01*
X564929Y716739D01*
X565141Y716615D01*
X565350Y716487D01*
X565556Y716353D01*
X565758Y716214D01*
X565957Y716070D01*
X566152Y715921D01*
X566344Y715768D01*
X566532Y715610D01*
X566716Y715448D01*
X566895Y715280D01*
X567071Y715109D01*
X567242Y714933D01*
X567410Y714754D01*
X567572Y714570D01*
X567730Y714382D01*
X567883Y714190D01*
X568032Y713995D01*
X568176Y713796D01*
X568315Y713594D01*
X568449Y713388D01*
X568577Y713179D01*
X568701Y712967D01*
X568819Y712752D01*
X568932Y712534D01*
X569040Y712314D01*
X569142Y712090D01*
X569239Y711865D01*
X569330Y711637D01*
X569415Y711407D01*
X569495Y711175D01*
X569569Y710941D01*
X569638Y710705D01*
X569700Y710468D01*
X569757Y710229D01*
X569808Y709989D01*
X569853Y709748D01*
X569892Y709505D01*
X569925Y709262D01*
X569952Y709018D01*
X569973Y708774D01*
X569988Y708529D01*
X569997Y708283D01*
X570000Y708038D01*
X569997Y707793D01*
X569988Y707547D01*
X569973Y707302D01*
X569952Y707058D01*
X569925Y706814D01*
X569892Y706571D01*
X569853Y706328D01*
X569808Y706087D01*
X569757Y705847D01*
X569700Y705608D01*
X569638Y705371D01*
X569569Y705135D01*
X569495Y704901D01*
X569415Y704669D01*
X569330Y704439D01*
X569239Y704211D01*
X569142Y703986D01*
X569040Y703762D01*
X568932Y703542D01*
X568819Y703324D01*
X568701Y703109D01*
X568577Y702897D01*
X568449Y702688D01*
X568315Y702482D01*
X568176Y702280D01*
X568032Y702081D01*
X567883Y701886D01*
X567730Y701694D01*
X567572Y701506D01*
X567410Y701322D01*
X567242Y701143D01*
X567071Y700967D01*
X566895Y700796D01*
X566716Y700628D01*
X566532Y700466D01*
X566344Y700308D01*
X566152Y700155D01*
X565957Y700006D01*
X565758Y699862D01*
X565556Y699723D01*
X565350Y699589D01*
X565141Y699461D01*
X564929Y699337D01*
X564714Y699219D01*
X564496Y699106D01*
X564276Y698998D01*
X564052Y698896D01*
X563827Y698799D01*
X563599Y698708D01*
X563369Y698623D01*
X563137Y698543D01*
X562903Y698469D01*
X562667Y698400D01*
X562430Y698338D01*
X562191Y698281D01*
X561951Y698230D01*
X561710Y698185D01*
X561467Y698146D01*
X561224Y698113D01*
X560980Y698086D01*
X560736Y698065D01*
X560491Y698050D01*
X560245Y698041D01*
X560000Y698038D01*
X559755Y698041D01*
X559509Y698050D01*
X559264Y698065D01*
X559020Y698086D01*
X558776Y698113D01*
X558533Y698146D01*
X558290Y698185D01*
X558049Y698230D01*
X557809Y698281D01*
X557570Y698338D01*
X557333Y698400D01*
X557097Y698469D01*
X556863Y698543D01*
X556631Y698623D01*
X556401Y698708D01*
X556173Y698799D01*
X555948Y698896D01*
X555724Y698998D01*
X555504Y699106D01*
X555286Y699219D01*
X555071Y699337D01*
X554859Y699461D01*
X554650Y699589D01*
X554444Y699723D01*
X554242Y699862D01*
X554043Y700006D01*
X553848Y700155D01*
X553656Y700308D01*
X553468Y700466D01*
X553284Y700628D01*
X553105Y700796D01*
X552929Y700967D01*
X552758Y701143D01*
X552590Y701322D01*
X552428Y701506D01*
X552270Y701694D01*
X552117Y701886D01*
X551968Y702081D01*
X551824Y702280D01*
X551685Y702482D01*
X551551Y702688D01*
X551423Y702897D01*
X551299Y703109D01*
X551181Y703324D01*
X551068Y703542D01*
X550960Y703762D01*
X550858Y703986D01*
X550761Y704211D01*
X550670Y704439D01*
X550585Y704669D01*
X550505Y704901D01*
X550431Y705135D01*
X550362Y705371D01*
X550300Y705608D01*
X550243Y705847D01*
X550192Y706087D01*
X550147Y706328D01*
X550108Y706571D01*
X550075Y706814D01*
X550048Y707058D01*
X550027Y707302D01*
X550012Y707547D01*
X550003Y707793D01*
X550000Y708038D01*
X389378Y24019D02*
X389381Y24264D01*
X389390Y24510D01*
X389405Y24755D01*
X389426Y24999D01*
X389453Y25243D01*
X389486Y25486D01*
X389525Y25729D01*
X389570Y25970D01*
X389621Y26210D01*
X389678Y26449D01*
X389740Y26686D01*
X389809Y26922D01*
X389883Y27156D01*
X389963Y27388D01*
X390048Y27618D01*
X390139Y27846D01*
X390236Y28071D01*
X390338Y28295D01*
X390446Y28515D01*
X390559Y28733D01*
X390677Y28948D01*
X390801Y29160D01*
X390929Y29369D01*
X391063Y29575D01*
X391202Y29777D01*
X391346Y29976D01*
X391495Y30171D01*
X391648Y30363D01*
X391806Y30551D01*
X391968Y30735D01*
X392136Y30914D01*
X392307Y31090D01*
X392483Y31261D01*
X392662Y31429D01*
X392846Y31591D01*
X393034Y31749D01*
X393226Y31902D01*
X393421Y32051D01*
X393620Y32195D01*
X393822Y32334D01*
X394028Y32468D01*
X394237Y32596D01*
X394449Y32720D01*
X394664Y32838D01*
X394882Y32951D01*
X395102Y33059D01*
X395326Y33161D01*
X395551Y33258D01*
X395779Y33349D01*
X396009Y33434D01*
X396241Y33514D01*
X396475Y33588D01*
X396711Y33657D01*
X396948Y33719D01*
X397187Y33776D01*
X397427Y33827D01*
X397668Y33872D01*
X397911Y33911D01*
X398154Y33944D01*
X398398Y33971D01*
X398642Y33992D01*
X398887Y34007D01*
X399133Y34016D01*
X399378Y34019D01*
X399623Y34016D01*
X399869Y34007D01*
X400114Y33992D01*
X400358Y33971D01*
X400602Y33944D01*
X400845Y33911D01*
X401088Y33872D01*
X401329Y33827D01*
X401569Y33776D01*
X401808Y33719D01*
X402045Y33657D01*
X402281Y33588D01*
X402515Y33514D01*
X402747Y33434D01*
X402977Y33349D01*
X403205Y33258D01*
X403430Y33161D01*
X403654Y33059D01*
X403874Y32951D01*
X404092Y32838D01*
X404307Y32720D01*
X404519Y32596D01*
X404728Y32468D01*
X404934Y32334D01*
X405136Y32195D01*
X405335Y32051D01*
X405530Y31902D01*
X405722Y31749D01*
X405910Y31591D01*
X406094Y31429D01*
X406273Y31261D01*
X406449Y31090D01*
X406620Y30914D01*
X406788Y30735D01*
X406950Y30551D01*
X407108Y30363D01*
X407261Y30171D01*
X407410Y29976D01*
X407554Y29777D01*
X407693Y29575D01*
X407827Y29369D01*
X407955Y29160D01*
X408079Y28948D01*
X408197Y28733D01*
X408310Y28515D01*
X408418Y28295D01*
X408520Y28071D01*
X408617Y27846D01*
X408708Y27618D01*
X408793Y27388D01*
X408873Y27156D01*
X408947Y26922D01*
X409016Y26686D01*
X409078Y26449D01*
X409135Y26210D01*
X409186Y25970D01*
X409231Y25729D01*
X409270Y25486D01*
X409303Y25243D01*
X409330Y24999D01*
X409351Y24755D01*
X409366Y24510D01*
X409375Y24264D01*
X409378Y24019D01*
X409375Y23774D01*
X409366Y23528D01*
X409351Y23283D01*
X409330Y23039D01*
X409303Y22795D01*
X409270Y22552D01*
X409231Y22309D01*
X409186Y22068D01*
X409135Y21828D01*
X409078Y21589D01*
X409016Y21352D01*
X408947Y21116D01*
X408873Y20882D01*
X408793Y20650D01*
X408708Y20420D01*
X408617Y20192D01*
X408520Y19967D01*
X408418Y19743D01*
X408310Y19523D01*
X408197Y19305D01*
X408079Y19090D01*
X407955Y18878D01*
X407827Y18669D01*
X407693Y18463D01*
X407554Y18261D01*
X407410Y18062D01*
X407261Y17867D01*
X407108Y17675D01*
X406950Y17487D01*
X406788Y17303D01*
X406620Y17124D01*
X406449Y16948D01*
X406273Y16777D01*
X406094Y16609D01*
X405910Y16447D01*
X405722Y16289D01*
X405530Y16136D01*
X405335Y15987D01*
X405136Y15843D01*
X404934Y15704D01*
X404728Y15570D01*
X404519Y15442D01*
X404307Y15318D01*
X404092Y15200D01*
X403874Y15087D01*
X403654Y14979D01*
X403430Y14877D01*
X403205Y14780D01*
X402977Y14689D01*
X402747Y14604D01*
X402515Y14524D01*
X402281Y14450D01*
X402045Y14381D01*
X401808Y14319D01*
X401569Y14262D01*
X401329Y14211D01*
X401088Y14166D01*
X400845Y14127D01*
X400602Y14094D01*
X400358Y14067D01*
X400114Y14046D01*
X399869Y14031D01*
X399623Y14022D01*
X399378Y14019D01*
X399133Y14022D01*
X398887Y14031D01*
X398642Y14046D01*
X398398Y14067D01*
X398154Y14094D01*
X397911Y14127D01*
X397668Y14166D01*
X397427Y14211D01*
X397187Y14262D01*
X396948Y14319D01*
X396711Y14381D01*
X396475Y14450D01*
X396241Y14524D01*
X396009Y14604D01*
X395779Y14689D01*
X395551Y14780D01*
X395326Y14877D01*
X395102Y14979D01*
X394882Y15087D01*
X394664Y15200D01*
X394449Y15318D01*
X394237Y15442D01*
X394028Y15570D01*
X393822Y15704D01*
X393620Y15843D01*
X393421Y15987D01*
X393226Y16136D01*
X393034Y16289D01*
X392846Y16447D01*
X392662Y16609D01*
X392483Y16777D01*
X392307Y16948D01*
X392136Y17124D01*
X391968Y17303D01*
X391806Y17487D01*
X391648Y17675D01*
X391495Y17867D01*
X391346Y18062D01*
X391202Y18261D01*
X391063Y18463D01*
X390929Y18669D01*
X390801Y18878D01*
X390677Y19090D01*
X390559Y19305D01*
X390446Y19523D01*
X390338Y19743D01*
X390236Y19967D01*
X390139Y20192D01*
X390048Y20420D01*
X389963Y20650D01*
X389883Y20882D01*
X389809Y21116D01*
X389740Y21352D01*
X389678Y21589D01*
X389621Y21828D01*
X389570Y22068D01*
X389525Y22309D01*
X389486Y22552D01*
X389453Y22795D01*
X389426Y23039D01*
X389405Y23283D01*
X389390Y23528D01*
X389381Y23774D01*
X389378Y24019D01*
X389378Y74019D02*
X389381Y74264D01*
X389390Y74510D01*
X389405Y74755D01*
X389426Y74999D01*
X389453Y75243D01*
X389486Y75486D01*
X389525Y75729D01*
X389570Y75970D01*
X389621Y76210D01*
X389678Y76449D01*
X389740Y76686D01*
X389809Y76922D01*
X389883Y77156D01*
X389963Y77388D01*
X390048Y77618D01*
X390139Y77846D01*
X390236Y78071D01*
X390338Y78295D01*
X390446Y78515D01*
X390559Y78733D01*
X390677Y78948D01*
X390801Y79160D01*
X390929Y79369D01*
X391063Y79575D01*
X391202Y79777D01*
X391346Y79976D01*
X391495Y80171D01*
X391648Y80363D01*
X391806Y80551D01*
X391968Y80735D01*
X392136Y80914D01*
X392307Y81090D01*
X392483Y81261D01*
X392662Y81429D01*
X392846Y81591D01*
X393034Y81749D01*
X393226Y81902D01*
X393421Y82051D01*
X393620Y82195D01*
X393822Y82334D01*
X394028Y82468D01*
X394237Y82596D01*
X394449Y82720D01*
X394664Y82838D01*
X394882Y82951D01*
X395102Y83059D01*
X395326Y83161D01*
X395551Y83258D01*
X395779Y83349D01*
X396009Y83434D01*
X396241Y83514D01*
X396475Y83588D01*
X396711Y83657D01*
X396948Y83719D01*
X397187Y83776D01*
X397427Y83827D01*
X397668Y83872D01*
X397911Y83911D01*
X398154Y83944D01*
X398398Y83971D01*
X398642Y83992D01*
X398887Y84007D01*
X399133Y84016D01*
X399378Y84019D01*
X399623Y84016D01*
X399869Y84007D01*
X400114Y83992D01*
X400358Y83971D01*
X400602Y83944D01*
X400845Y83911D01*
X401088Y83872D01*
X401329Y83827D01*
X401569Y83776D01*
X401808Y83719D01*
X402045Y83657D01*
X402281Y83588D01*
X402515Y83514D01*
X402747Y83434D01*
X402977Y83349D01*
X403205Y83258D01*
X403430Y83161D01*
X403654Y83059D01*
X403874Y82951D01*
X404092Y82838D01*
X404307Y82720D01*
X404519Y82596D01*
X404728Y82468D01*
X404934Y82334D01*
X405136Y82195D01*
X405335Y82051D01*
X405530Y81902D01*
X405722Y81749D01*
X405910Y81591D01*
X406094Y81429D01*
X406273Y81261D01*
X406449Y81090D01*
X406620Y80914D01*
X406788Y80735D01*
X406950Y80551D01*
X407108Y80363D01*
X407261Y80171D01*
X407410Y79976D01*
X407554Y79777D01*
X407693Y79575D01*
X407827Y79369D01*
X407955Y79160D01*
X408079Y78948D01*
X408197Y78733D01*
X408310Y78515D01*
X408418Y78295D01*
X408520Y78071D01*
X408617Y77846D01*
X408708Y77618D01*
X408793Y77388D01*
X408873Y77156D01*
X408947Y76922D01*
X409016Y76686D01*
X409078Y76449D01*
X409135Y76210D01*
X409186Y75970D01*
X409231Y75729D01*
X409270Y75486D01*
X409303Y75243D01*
X409330Y74999D01*
X409351Y74755D01*
X409366Y74510D01*
X409375Y74264D01*
X409378Y74019D01*
X409375Y73774D01*
X409366Y73528D01*
X409351Y73283D01*
X409330Y73039D01*
X409303Y72795D01*
X409270Y72552D01*
X409231Y72309D01*
X409186Y72068D01*
X409135Y71828D01*
X409078Y71589D01*
X409016Y71352D01*
X408947Y71116D01*
X408873Y70882D01*
X408793Y70650D01*
X408708Y70420D01*
X408617Y70192D01*
X408520Y69967D01*
X408418Y69743D01*
X408310Y69523D01*
X408197Y69305D01*
X408079Y69090D01*
X407955Y68878D01*
X407827Y68669D01*
X407693Y68463D01*
X407554Y68261D01*
X407410Y68062D01*
X407261Y67867D01*
X407108Y67675D01*
X406950Y67487D01*
X406788Y67303D01*
X406620Y67124D01*
X406449Y66948D01*
X406273Y66777D01*
X406094Y66609D01*
X405910Y66447D01*
X405722Y66289D01*
X405530Y66136D01*
X405335Y65987D01*
X405136Y65843D01*
X404934Y65704D01*
X404728Y65570D01*
X404519Y65442D01*
X404307Y65318D01*
X404092Y65200D01*
X403874Y65087D01*
X403654Y64979D01*
X403430Y64877D01*
X403205Y64780D01*
X402977Y64689D01*
X402747Y64604D01*
X402515Y64524D01*
X402281Y64450D01*
X402045Y64381D01*
X401808Y64319D01*
X401569Y64262D01*
X401329Y64211D01*
X401088Y64166D01*
X400845Y64127D01*
X400602Y64094D01*
X400358Y64067D01*
X400114Y64046D01*
X399869Y64031D01*
X399623Y64022D01*
X399378Y64019D01*
X399133Y64022D01*
X398887Y64031D01*
X398642Y64046D01*
X398398Y64067D01*
X398154Y64094D01*
X397911Y64127D01*
X397668Y64166D01*
X397427Y64211D01*
X397187Y64262D01*
X396948Y64319D01*
X396711Y64381D01*
X396475Y64450D01*
X396241Y64524D01*
X396009Y64604D01*
X395779Y64689D01*
X395551Y64780D01*
X395326Y64877D01*
X395102Y64979D01*
X394882Y65087D01*
X394664Y65200D01*
X394449Y65318D01*
X394237Y65442D01*
X394028Y65570D01*
X393822Y65704D01*
X393620Y65843D01*
X393421Y65987D01*
X393226Y66136D01*
X393034Y66289D01*
X392846Y66447D01*
X392662Y66609D01*
X392483Y66777D01*
X392307Y66948D01*
X392136Y67124D01*
X391968Y67303D01*
X391806Y67487D01*
X391648Y67675D01*
X391495Y67867D01*
X391346Y68062D01*
X391202Y68261D01*
X391063Y68463D01*
X390929Y68669D01*
X390801Y68878D01*
X390677Y69090D01*
X390559Y69305D01*
X390446Y69523D01*
X390338Y69743D01*
X390236Y69967D01*
X390139Y70192D01*
X390048Y70420D01*
X389963Y70650D01*
X389883Y70882D01*
X389809Y71116D01*
X389740Y71352D01*
X389678Y71589D01*
X389621Y71828D01*
X389570Y72068D01*
X389525Y72309D01*
X389486Y72552D01*
X389453Y72795D01*
X389426Y73039D01*
X389405Y73283D01*
X389390Y73528D01*
X389381Y73774D01*
X389378Y74019D01*
X309212Y506603D02*
X309215Y506848D01*
X309224Y507094D01*
X309239Y507339D01*
X309260Y507583D01*
X309287Y507827D01*
X309320Y508070D01*
X309359Y508313D01*
X309404Y508554D01*
X309455Y508794D01*
X309512Y509033D01*
X309574Y509270D01*
X309643Y509506D01*
X309717Y509740D01*
X309797Y509972D01*
X309882Y510202D01*
X309973Y510430D01*
X310070Y510655D01*
X310172Y510879D01*
X310280Y511099D01*
X310393Y511317D01*
X310511Y511532D01*
X310635Y511744D01*
X310763Y511953D01*
X310897Y512159D01*
X311036Y512361D01*
X311180Y512560D01*
X311329Y512755D01*
X311482Y512947D01*
X311640Y513135D01*
X311802Y513319D01*
X311970Y513498D01*
X312141Y513674D01*
X312317Y513845D01*
X312496Y514013D01*
X312680Y514175D01*
X312868Y514333D01*
X313060Y514486D01*
X313255Y514635D01*
X313454Y514779D01*
X313656Y514918D01*
X313862Y515052D01*
X314071Y515180D01*
X314283Y515304D01*
X314498Y515422D01*
X314716Y515535D01*
X314936Y515643D01*
X315160Y515745D01*
X315385Y515842D01*
X315613Y515933D01*
X315843Y516018D01*
X316075Y516098D01*
X316309Y516172D01*
X316545Y516241D01*
X316782Y516303D01*
X317021Y516360D01*
X317261Y516411D01*
X317502Y516456D01*
X317745Y516495D01*
X317988Y516528D01*
X318232Y516555D01*
X318476Y516576D01*
X318721Y516591D01*
X318967Y516600D01*
X319212Y516603D01*
X319457Y516600D01*
X319703Y516591D01*
X319948Y516576D01*
X320192Y516555D01*
X320436Y516528D01*
X320679Y516495D01*
X320922Y516456D01*
X321163Y516411D01*
X321403Y516360D01*
X321642Y516303D01*
X321879Y516241D01*
X322115Y516172D01*
X322349Y516098D01*
X322581Y516018D01*
X322811Y515933D01*
X323039Y515842D01*
X323264Y515745D01*
X323488Y515643D01*
X323708Y515535D01*
X323926Y515422D01*
X324141Y515304D01*
X324353Y515180D01*
X324562Y515052D01*
X324768Y514918D01*
X324970Y514779D01*
X325169Y514635D01*
X325364Y514486D01*
X325556Y514333D01*
X325744Y514175D01*
X325928Y514013D01*
X326107Y513845D01*
X326283Y513674D01*
X326454Y513498D01*
X326622Y513319D01*
X326784Y513135D01*
X326942Y512947D01*
X327095Y512755D01*
X327244Y512560D01*
X327388Y512361D01*
X327527Y512159D01*
X327661Y511953D01*
X327789Y511744D01*
X327913Y511532D01*
X328031Y511317D01*
X328144Y511099D01*
X328252Y510879D01*
X328354Y510655D01*
X328451Y510430D01*
X328542Y510202D01*
X328627Y509972D01*
X328707Y509740D01*
X328781Y509506D01*
X328850Y509270D01*
X328912Y509033D01*
X328969Y508794D01*
X329020Y508554D01*
X329065Y508313D01*
X329104Y508070D01*
X329137Y507827D01*
X329164Y507583D01*
X329185Y507339D01*
X329200Y507094D01*
X329209Y506848D01*
X329212Y506603D01*
X329209Y506358D01*
X329200Y506112D01*
X329185Y505867D01*
X329164Y505623D01*
X329137Y505379D01*
X329104Y505136D01*
X329065Y504893D01*
X329020Y504652D01*
X328969Y504412D01*
X328912Y504173D01*
X328850Y503936D01*
X328781Y503700D01*
X328707Y503466D01*
X328627Y503234D01*
X328542Y503004D01*
X328451Y502776D01*
X328354Y502551D01*
X328252Y502327D01*
X328144Y502107D01*
X328031Y501889D01*
X327913Y501674D01*
X327789Y501462D01*
X327661Y501253D01*
X327527Y501047D01*
X327388Y500845D01*
X327244Y500646D01*
X327095Y500451D01*
X326942Y500259D01*
X326784Y500071D01*
X326622Y499887D01*
X326454Y499708D01*
X326283Y499532D01*
X326107Y499361D01*
X325928Y499193D01*
X325744Y499031D01*
X325556Y498873D01*
X325364Y498720D01*
X325169Y498571D01*
X324970Y498427D01*
X324768Y498288D01*
X324562Y498154D01*
X324353Y498026D01*
X324141Y497902D01*
X323926Y497784D01*
X323708Y497671D01*
X323488Y497563D01*
X323264Y497461D01*
X323039Y497364D01*
X322811Y497273D01*
X322581Y497188D01*
X322349Y497108D01*
X322115Y497034D01*
X321879Y496965D01*
X321642Y496903D01*
X321403Y496846D01*
X321163Y496795D01*
X320922Y496750D01*
X320679Y496711D01*
X320436Y496678D01*
X320192Y496651D01*
X319948Y496630D01*
X319703Y496615D01*
X319457Y496606D01*
X319212Y496603D01*
X318967Y496606D01*
X318721Y496615D01*
X318476Y496630D01*
X318232Y496651D01*
X317988Y496678D01*
X317745Y496711D01*
X317502Y496750D01*
X317261Y496795D01*
X317021Y496846D01*
X316782Y496903D01*
X316545Y496965D01*
X316309Y497034D01*
X316075Y497108D01*
X315843Y497188D01*
X315613Y497273D01*
X315385Y497364D01*
X315160Y497461D01*
X314936Y497563D01*
X314716Y497671D01*
X314498Y497784D01*
X314283Y497902D01*
X314071Y498026D01*
X313862Y498154D01*
X313656Y498288D01*
X313454Y498427D01*
X313255Y498571D01*
X313060Y498720D01*
X312868Y498873D01*
X312680Y499031D01*
X312496Y499193D01*
X312317Y499361D01*
X312141Y499532D01*
X311970Y499708D01*
X311802Y499887D01*
X311640Y500071D01*
X311482Y500259D01*
X311329Y500451D01*
X311180Y500646D01*
X311036Y500845D01*
X310897Y501047D01*
X310763Y501253D01*
X310635Y501462D01*
X310511Y501674D01*
X310393Y501889D01*
X310280Y502107D01*
X310172Y502327D01*
X310070Y502551D01*
X309973Y502776D01*
X309882Y503004D01*
X309797Y503234D01*
X309717Y503466D01*
X309643Y503700D01*
X309574Y503936D01*
X309512Y504173D01*
X309455Y504412D01*
X309404Y504652D01*
X309359Y504893D01*
X309320Y505136D01*
X309287Y505379D01*
X309260Y505623D01*
X309239Y505867D01*
X309224Y506112D01*
X309215Y506358D01*
X309212Y506603D01*
X352513Y481603D02*
X352516Y481848D01*
X352525Y482094D01*
X352540Y482339D01*
X352561Y482583D01*
X352588Y482827D01*
X352621Y483070D01*
X352660Y483313D01*
X352705Y483554D01*
X352756Y483794D01*
X352813Y484033D01*
X352875Y484270D01*
X352944Y484506D01*
X353018Y484740D01*
X353098Y484972D01*
X353183Y485202D01*
X353274Y485430D01*
X353371Y485655D01*
X353473Y485879D01*
X353581Y486099D01*
X353694Y486317D01*
X353812Y486532D01*
X353936Y486744D01*
X354064Y486953D01*
X354198Y487159D01*
X354337Y487361D01*
X354481Y487560D01*
X354630Y487755D01*
X354783Y487947D01*
X354941Y488135D01*
X355103Y488319D01*
X355271Y488498D01*
X355442Y488674D01*
X355618Y488845D01*
X355797Y489013D01*
X355981Y489175D01*
X356169Y489333D01*
X356361Y489486D01*
X356556Y489635D01*
X356755Y489779D01*
X356957Y489918D01*
X357163Y490052D01*
X357372Y490180D01*
X357584Y490304D01*
X357799Y490422D01*
X358017Y490535D01*
X358237Y490643D01*
X358461Y490745D01*
X358686Y490842D01*
X358914Y490933D01*
X359144Y491018D01*
X359376Y491098D01*
X359610Y491172D01*
X359846Y491241D01*
X360083Y491303D01*
X360322Y491360D01*
X360562Y491411D01*
X360803Y491456D01*
X361046Y491495D01*
X361289Y491528D01*
X361533Y491555D01*
X361777Y491576D01*
X362022Y491591D01*
X362268Y491600D01*
X362513Y491603D01*
X362758Y491600D01*
X363004Y491591D01*
X363249Y491576D01*
X363493Y491555D01*
X363737Y491528D01*
X363980Y491495D01*
X364223Y491456D01*
X364464Y491411D01*
X364704Y491360D01*
X364943Y491303D01*
X365180Y491241D01*
X365416Y491172D01*
X365650Y491098D01*
X365882Y491018D01*
X366112Y490933D01*
X366340Y490842D01*
X366565Y490745D01*
X366789Y490643D01*
X367009Y490535D01*
X367227Y490422D01*
X367442Y490304D01*
X367654Y490180D01*
X367863Y490052D01*
X368069Y489918D01*
X368271Y489779D01*
X368470Y489635D01*
X368665Y489486D01*
X368857Y489333D01*
X369045Y489175D01*
X369229Y489013D01*
X369408Y488845D01*
X369584Y488674D01*
X369755Y488498D01*
X369923Y488319D01*
X370085Y488135D01*
X370243Y487947D01*
X370396Y487755D01*
X370545Y487560D01*
X370689Y487361D01*
X370828Y487159D01*
X370962Y486953D01*
X371090Y486744D01*
X371214Y486532D01*
X371332Y486317D01*
X371445Y486099D01*
X371553Y485879D01*
X371655Y485655D01*
X371752Y485430D01*
X371843Y485202D01*
X371928Y484972D01*
X372008Y484740D01*
X372082Y484506D01*
X372151Y484270D01*
X372213Y484033D01*
X372270Y483794D01*
X372321Y483554D01*
X372366Y483313D01*
X372405Y483070D01*
X372438Y482827D01*
X372465Y482583D01*
X372486Y482339D01*
X372501Y482094D01*
X372510Y481848D01*
X372513Y481603D01*
X372510Y481358D01*
X372501Y481112D01*
X372486Y480867D01*
X372465Y480623D01*
X372438Y480379D01*
X372405Y480136D01*
X372366Y479893D01*
X372321Y479652D01*
X372270Y479412D01*
X372213Y479173D01*
X372151Y478936D01*
X372082Y478700D01*
X372008Y478466D01*
X371928Y478234D01*
X371843Y478004D01*
X371752Y477776D01*
X371655Y477551D01*
X371553Y477327D01*
X371445Y477107D01*
X371332Y476889D01*
X371214Y476674D01*
X371090Y476462D01*
X370962Y476253D01*
X370828Y476047D01*
X370689Y475845D01*
X370545Y475646D01*
X370396Y475451D01*
X370243Y475259D01*
X370085Y475071D01*
X369923Y474887D01*
X369755Y474708D01*
X369584Y474532D01*
X369408Y474361D01*
X369229Y474193D01*
X369045Y474031D01*
X368857Y473873D01*
X368665Y473720D01*
X368470Y473571D01*
X368271Y473427D01*
X368069Y473288D01*
X367863Y473154D01*
X367654Y473026D01*
X367442Y472902D01*
X367227Y472784D01*
X367009Y472671D01*
X366789Y472563D01*
X366565Y472461D01*
X366340Y472364D01*
X366112Y472273D01*
X365882Y472188D01*
X365650Y472108D01*
X365416Y472034D01*
X365180Y471965D01*
X364943Y471903D01*
X364704Y471846D01*
X364464Y471795D01*
X364223Y471750D01*
X363980Y471711D01*
X363737Y471678D01*
X363493Y471651D01*
X363249Y471630D01*
X363004Y471615D01*
X362758Y471606D01*
X362513Y471603D01*
X362268Y471606D01*
X362022Y471615D01*
X361777Y471630D01*
X361533Y471651D01*
X361289Y471678D01*
X361046Y471711D01*
X360803Y471750D01*
X360562Y471795D01*
X360322Y471846D01*
X360083Y471903D01*
X359846Y471965D01*
X359610Y472034D01*
X359376Y472108D01*
X359144Y472188D01*
X358914Y472273D01*
X358686Y472364D01*
X358461Y472461D01*
X358237Y472563D01*
X358017Y472671D01*
X357799Y472784D01*
X357584Y472902D01*
X357372Y473026D01*
X357163Y473154D01*
X356957Y473288D01*
X356755Y473427D01*
X356556Y473571D01*
X356361Y473720D01*
X356169Y473873D01*
X355981Y474031D01*
X355797Y474193D01*
X355618Y474361D01*
X355442Y474532D01*
X355271Y474708D01*
X355103Y474887D01*
X354941Y475071D01*
X354783Y475259D01*
X354630Y475451D01*
X354481Y475646D01*
X354337Y475845D01*
X354198Y476047D01*
X354064Y476253D01*
X353936Y476462D01*
X353812Y476674D01*
X353694Y476889D01*
X353581Y477107D01*
X353473Y477327D01*
X353371Y477551D01*
X353274Y477776D01*
X353183Y478004D01*
X353098Y478234D01*
X353018Y478466D01*
X352944Y478700D01*
X352875Y478936D01*
X352813Y479173D01*
X352756Y479412D01*
X352705Y479652D01*
X352660Y479893D01*
X352621Y480136D01*
X352588Y480379D01*
X352561Y480623D01*
X352540Y480867D01*
X352525Y481112D01*
X352516Y481358D01*
X352513Y481603D01*
X766506Y324737D02*
X766509Y324982D01*
X766518Y325228D01*
X766533Y325473D01*
X766554Y325717D01*
X766581Y325961D01*
X766614Y326204D01*
X766653Y326447D01*
X766698Y326688D01*
X766749Y326928D01*
X766806Y327167D01*
X766868Y327404D01*
X766937Y327640D01*
X767011Y327874D01*
X767091Y328106D01*
X767176Y328336D01*
X767267Y328564D01*
X767364Y328789D01*
X767466Y329013D01*
X767574Y329233D01*
X767687Y329451D01*
X767805Y329666D01*
X767929Y329878D01*
X768057Y330087D01*
X768191Y330293D01*
X768330Y330495D01*
X768474Y330694D01*
X768623Y330889D01*
X768776Y331081D01*
X768934Y331269D01*
X769096Y331453D01*
X769264Y331632D01*
X769435Y331808D01*
X769611Y331979D01*
X769790Y332147D01*
X769974Y332309D01*
X770162Y332467D01*
X770354Y332620D01*
X770549Y332769D01*
X770748Y332913D01*
X770950Y333052D01*
X771156Y333186D01*
X771365Y333314D01*
X771577Y333438D01*
X771792Y333556D01*
X772010Y333669D01*
X772230Y333777D01*
X772454Y333879D01*
X772679Y333976D01*
X772907Y334067D01*
X773137Y334152D01*
X773369Y334232D01*
X773603Y334306D01*
X773839Y334375D01*
X774076Y334437D01*
X774315Y334494D01*
X774555Y334545D01*
X774796Y334590D01*
X775039Y334629D01*
X775282Y334662D01*
X775526Y334689D01*
X775770Y334710D01*
X776015Y334725D01*
X776261Y334734D01*
X776506Y334737D01*
X776751Y334734D01*
X776997Y334725D01*
X777242Y334710D01*
X777486Y334689D01*
X777730Y334662D01*
X777973Y334629D01*
X778216Y334590D01*
X778457Y334545D01*
X778697Y334494D01*
X778936Y334437D01*
X779173Y334375D01*
X779409Y334306D01*
X779643Y334232D01*
X779875Y334152D01*
X780105Y334067D01*
X780333Y333976D01*
X780558Y333879D01*
X780782Y333777D01*
X781002Y333669D01*
X781220Y333556D01*
X781435Y333438D01*
X781647Y333314D01*
X781856Y333186D01*
X782062Y333052D01*
X782264Y332913D01*
X782463Y332769D01*
X782658Y332620D01*
X782850Y332467D01*
X783038Y332309D01*
X783222Y332147D01*
X783401Y331979D01*
X783577Y331808D01*
X783748Y331632D01*
X783916Y331453D01*
X784078Y331269D01*
X784236Y331081D01*
X784389Y330889D01*
X784538Y330694D01*
X784682Y330495D01*
X784821Y330293D01*
X784955Y330087D01*
X785083Y329878D01*
X785207Y329666D01*
X785325Y329451D01*
X785438Y329233D01*
X785546Y329013D01*
X785648Y328789D01*
X785745Y328564D01*
X785836Y328336D01*
X785921Y328106D01*
X786001Y327874D01*
X786075Y327640D01*
X786144Y327404D01*
X786206Y327167D01*
X786263Y326928D01*
X786314Y326688D01*
X786359Y326447D01*
X786398Y326204D01*
X786431Y325961D01*
X786458Y325717D01*
X786479Y325473D01*
X786494Y325228D01*
X786503Y324982D01*
X786506Y324737D01*
X786503Y324492D01*
X786494Y324246D01*
X786479Y324001D01*
X786458Y323757D01*
X786431Y323513D01*
X786398Y323270D01*
X786359Y323027D01*
X786314Y322786D01*
X786263Y322546D01*
X786206Y322307D01*
X786144Y322070D01*
X786075Y321834D01*
X786001Y321600D01*
X785921Y321368D01*
X785836Y321138D01*
X785745Y320910D01*
X785648Y320685D01*
X785546Y320461D01*
X785438Y320241D01*
X785325Y320023D01*
X785207Y319808D01*
X785083Y319596D01*
X784955Y319387D01*
X784821Y319181D01*
X784682Y318979D01*
X784538Y318780D01*
X784389Y318585D01*
X784236Y318393D01*
X784078Y318205D01*
X783916Y318021D01*
X783748Y317842D01*
X783577Y317666D01*
X783401Y317495D01*
X783222Y317327D01*
X783038Y317165D01*
X782850Y317007D01*
X782658Y316854D01*
X782463Y316705D01*
X782264Y316561D01*
X782062Y316422D01*
X781856Y316288D01*
X781647Y316160D01*
X781435Y316036D01*
X781220Y315918D01*
X781002Y315805D01*
X780782Y315697D01*
X780558Y315595D01*
X780333Y315498D01*
X780105Y315407D01*
X779875Y315322D01*
X779643Y315242D01*
X779409Y315168D01*
X779173Y315099D01*
X778936Y315037D01*
X778697Y314980D01*
X778457Y314929D01*
X778216Y314884D01*
X777973Y314845D01*
X777730Y314812D01*
X777486Y314785D01*
X777242Y314764D01*
X776997Y314749D01*
X776751Y314740D01*
X776506Y314737D01*
X776261Y314740D01*
X776015Y314749D01*
X775770Y314764D01*
X775526Y314785D01*
X775282Y314812D01*
X775039Y314845D01*
X774796Y314884D01*
X774555Y314929D01*
X774315Y314980D01*
X774076Y315037D01*
X773839Y315099D01*
X773603Y315168D01*
X773369Y315242D01*
X773137Y315322D01*
X772907Y315407D01*
X772679Y315498D01*
X772454Y315595D01*
X772230Y315697D01*
X772010Y315805D01*
X771792Y315918D01*
X771577Y316036D01*
X771365Y316160D01*
X771156Y316288D01*
X770950Y316422D01*
X770748Y316561D01*
X770549Y316705D01*
X770354Y316854D01*
X770162Y317007D01*
X769974Y317165D01*
X769790Y317327D01*
X769611Y317495D01*
X769435Y317666D01*
X769264Y317842D01*
X769096Y318021D01*
X768934Y318205D01*
X768776Y318393D01*
X768623Y318585D01*
X768474Y318780D01*
X768330Y318979D01*
X768191Y319181D01*
X768057Y319387D01*
X767929Y319596D01*
X767805Y319808D01*
X767687Y320023D01*
X767574Y320241D01*
X767466Y320461D01*
X767364Y320685D01*
X767267Y320910D01*
X767176Y321138D01*
X767091Y321368D01*
X767011Y321600D01*
X766937Y321834D01*
X766868Y322070D01*
X766806Y322307D01*
X766749Y322546D01*
X766698Y322786D01*
X766653Y323027D01*
X766614Y323270D01*
X766581Y323513D01*
X766554Y323757D01*
X766533Y324001D01*
X766518Y324246D01*
X766509Y324492D01*
X766506Y324737D01*
X723205Y299737D02*
X723208Y299982D01*
X723217Y300228D01*
X723232Y300473D01*
X723253Y300717D01*
X723280Y300961D01*
X723313Y301204D01*
X723352Y301447D01*
X723397Y301688D01*
X723448Y301928D01*
X723505Y302167D01*
X723567Y302404D01*
X723636Y302640D01*
X723710Y302874D01*
X723790Y303106D01*
X723875Y303336D01*
X723966Y303564D01*
X724063Y303789D01*
X724165Y304013D01*
X724273Y304233D01*
X724386Y304451D01*
X724504Y304666D01*
X724628Y304878D01*
X724756Y305087D01*
X724890Y305293D01*
X725029Y305495D01*
X725173Y305694D01*
X725322Y305889D01*
X725475Y306081D01*
X725633Y306269D01*
X725795Y306453D01*
X725963Y306632D01*
X726134Y306808D01*
X726310Y306979D01*
X726489Y307147D01*
X726673Y307309D01*
X726861Y307467D01*
X727053Y307620D01*
X727248Y307769D01*
X727447Y307913D01*
X727649Y308052D01*
X727855Y308186D01*
X728064Y308314D01*
X728276Y308438D01*
X728491Y308556D01*
X728709Y308669D01*
X728929Y308777D01*
X729153Y308879D01*
X729378Y308976D01*
X729606Y309067D01*
X729836Y309152D01*
X730068Y309232D01*
X730302Y309306D01*
X730538Y309375D01*
X730775Y309437D01*
X731014Y309494D01*
X731254Y309545D01*
X731495Y309590D01*
X731738Y309629D01*
X731981Y309662D01*
X732225Y309689D01*
X732469Y309710D01*
X732714Y309725D01*
X732960Y309734D01*
X733205Y309737D01*
X733450Y309734D01*
X733696Y309725D01*
X733941Y309710D01*
X734185Y309689D01*
X734429Y309662D01*
X734672Y309629D01*
X734915Y309590D01*
X735156Y309545D01*
X735396Y309494D01*
X735635Y309437D01*
X735872Y309375D01*
X736108Y309306D01*
X736342Y309232D01*
X736574Y309152D01*
X736804Y309067D01*
X737032Y308976D01*
X737257Y308879D01*
X737481Y308777D01*
X737701Y308669D01*
X737919Y308556D01*
X738134Y308438D01*
X738346Y308314D01*
X738555Y308186D01*
X738761Y308052D01*
X738963Y307913D01*
X739162Y307769D01*
X739357Y307620D01*
X739549Y307467D01*
X739737Y307309D01*
X739921Y307147D01*
X740100Y306979D01*
X740276Y306808D01*
X740447Y306632D01*
X740615Y306453D01*
X740777Y306269D01*
X740935Y306081D01*
X741088Y305889D01*
X741237Y305694D01*
X741381Y305495D01*
X741520Y305293D01*
X741654Y305087D01*
X741782Y304878D01*
X741906Y304666D01*
X742024Y304451D01*
X742137Y304233D01*
X742245Y304013D01*
X742347Y303789D01*
X742444Y303564D01*
X742535Y303336D01*
X742620Y303106D01*
X742700Y302874D01*
X742774Y302640D01*
X742843Y302404D01*
X742905Y302167D01*
X742962Y301928D01*
X743013Y301688D01*
X743058Y301447D01*
X743097Y301204D01*
X743130Y300961D01*
X743157Y300717D01*
X743178Y300473D01*
X743193Y300228D01*
X743202Y299982D01*
X743205Y299737D01*
X743202Y299492D01*
X743193Y299246D01*
X743178Y299001D01*
X743157Y298757D01*
X743130Y298513D01*
X743097Y298270D01*
X743058Y298027D01*
X743013Y297786D01*
X742962Y297546D01*
X742905Y297307D01*
X742843Y297070D01*
X742774Y296834D01*
X742700Y296600D01*
X742620Y296368D01*
X742535Y296138D01*
X742444Y295910D01*
X742347Y295685D01*
X742245Y295461D01*
X742137Y295241D01*
X742024Y295023D01*
X741906Y294808D01*
X741782Y294596D01*
X741654Y294387D01*
X741520Y294181D01*
X741381Y293979D01*
X741237Y293780D01*
X741088Y293585D01*
X740935Y293393D01*
X740777Y293205D01*
X740615Y293021D01*
X740447Y292842D01*
X740276Y292666D01*
X740100Y292495D01*
X739921Y292327D01*
X739737Y292165D01*
X739549Y292007D01*
X739357Y291854D01*
X739162Y291705D01*
X738963Y291561D01*
X738761Y291422D01*
X738555Y291288D01*
X738346Y291160D01*
X738134Y291036D01*
X737919Y290918D01*
X737701Y290805D01*
X737481Y290697D01*
X737257Y290595D01*
X737032Y290498D01*
X736804Y290407D01*
X736574Y290322D01*
X736342Y290242D01*
X736108Y290168D01*
X735872Y290099D01*
X735635Y290037D01*
X735396Y289980D01*
X735156Y289929D01*
X734915Y289884D01*
X734672Y289845D01*
X734429Y289812D01*
X734185Y289785D01*
X733941Y289764D01*
X733696Y289749D01*
X733450Y289740D01*
X733205Y289737D01*
X732960Y289740D01*
X732714Y289749D01*
X732469Y289764D01*
X732225Y289785D01*
X731981Y289812D01*
X731738Y289845D01*
X731495Y289884D01*
X731254Y289929D01*
X731014Y289980D01*
X730775Y290037D01*
X730538Y290099D01*
X730302Y290168D01*
X730068Y290242D01*
X729836Y290322D01*
X729606Y290407D01*
X729378Y290498D01*
X729153Y290595D01*
X728929Y290697D01*
X728709Y290805D01*
X728491Y290918D01*
X728276Y291036D01*
X728064Y291160D01*
X727855Y291288D01*
X727649Y291422D01*
X727447Y291561D01*
X727248Y291705D01*
X727053Y291854D01*
X726861Y292007D01*
X726673Y292165D01*
X726489Y292327D01*
X726310Y292495D01*
X726134Y292666D01*
X725963Y292842D01*
X725795Y293021D01*
X725633Y293205D01*
X725475Y293393D01*
X725322Y293585D01*
X725173Y293780D01*
X725029Y293979D01*
X724890Y294181D01*
X724756Y294387D01*
X724628Y294596D01*
X724504Y294808D01*
X724386Y295023D01*
X724273Y295241D01*
X724165Y295461D01*
X724063Y295685D01*
X723966Y295910D01*
X723875Y296138D01*
X723790Y296368D01*
X723710Y296600D01*
X723636Y296834D01*
X723567Y297070D01*
X723505Y297307D01*
X723448Y297546D01*
X723397Y297786D01*
X723352Y298027D01*
X723313Y298270D01*
X723280Y298513D01*
X723253Y298757D01*
X723232Y299001D01*
X723217Y299246D01*
X723208Y299492D01*
X723205Y299737D01*
X34000Y30000D02*
X34005Y30393D01*
X34019Y30785D01*
X34043Y31177D01*
X34077Y31568D01*
X34120Y31959D01*
X34173Y32348D01*
X34236Y32735D01*
X34307Y33121D01*
X34389Y33506D01*
X34479Y33888D01*
X34580Y34267D01*
X34689Y34645D01*
X34808Y35019D01*
X34935Y35390D01*
X35072Y35758D01*
X35218Y36123D01*
X35373Y36484D01*
X35536Y36841D01*
X35708Y37194D01*
X35889Y37542D01*
X36079Y37886D01*
X36276Y38226D01*
X36482Y38560D01*
X36696Y38889D01*
X36919Y39213D01*
X37149Y39531D01*
X37386Y39844D01*
X37632Y40150D01*
X37885Y40451D01*
X38145Y40745D01*
X38412Y41033D01*
X38686Y41314D01*
X38967Y41588D01*
X39255Y41855D01*
X39549Y42115D01*
X39850Y42368D01*
X40156Y42614D01*
X40469Y42851D01*
X40787Y43081D01*
X41111Y43304D01*
X41440Y43518D01*
X41774Y43724D01*
X42114Y43921D01*
X42458Y44111D01*
X42806Y44292D01*
X43159Y44464D01*
X43516Y44627D01*
X43877Y44782D01*
X44242Y44928D01*
X44610Y45065D01*
X44981Y45192D01*
X45355Y45311D01*
X45733Y45420D01*
X46112Y45521D01*
X46494Y45611D01*
X46879Y45693D01*
X47265Y45764D01*
X47652Y45827D01*
X48041Y45880D01*
X48432Y45923D01*
X48823Y45957D01*
X49215Y45981D01*
X49607Y45995D01*
X50000Y46000D01*
X50393Y45995D01*
X50785Y45981D01*
X51177Y45957D01*
X51568Y45923D01*
X51959Y45880D01*
X52348Y45827D01*
X52735Y45764D01*
X53121Y45693D01*
X53506Y45611D01*
X53888Y45521D01*
X54267Y45420D01*
X54645Y45311D01*
X55019Y45192D01*
X55390Y45065D01*
X55758Y44928D01*
X56123Y44782D01*
X56484Y44627D01*
X56841Y44464D01*
X57194Y44292D01*
X57542Y44111D01*
X57886Y43921D01*
X58226Y43724D01*
X58560Y43518D01*
X58889Y43304D01*
X59213Y43081D01*
X59531Y42851D01*
X59844Y42614D01*
X60150Y42368D01*
X60451Y42115D01*
X60745Y41855D01*
X61033Y41588D01*
X61314Y41314D01*
X61588Y41033D01*
X61855Y40745D01*
X62115Y40451D01*
X62368Y40150D01*
X62614Y39844D01*
X62851Y39531D01*
X63081Y39213D01*
X63304Y38889D01*
X63518Y38560D01*
X63724Y38226D01*
X63921Y37886D01*
X64111Y37542D01*
X64292Y37194D01*
X64464Y36841D01*
X64627Y36484D01*
X64782Y36123D01*
X64928Y35758D01*
X65065Y35390D01*
X65192Y35019D01*
X65311Y34645D01*
X65420Y34267D01*
X65521Y33888D01*
X65611Y33506D01*
X65693Y33121D01*
X65764Y32735D01*
X65827Y32348D01*
X65880Y31959D01*
X65923Y31568D01*
X65957Y31177D01*
X65981Y30785D01*
X65995Y30393D01*
X66000Y30000D01*
X65995Y29607D01*
X65981Y29215D01*
X65957Y28823D01*
X65923Y28432D01*
X65880Y28041D01*
X65827Y27652D01*
X65764Y27265D01*
X65693Y26879D01*
X65611Y26494D01*
X65521Y26112D01*
X65420Y25733D01*
X65311Y25355D01*
X65192Y24981D01*
X65065Y24610D01*
X64928Y24242D01*
X64782Y23877D01*
X64627Y23516D01*
X64464Y23159D01*
X64292Y22806D01*
X64111Y22458D01*
X63921Y22114D01*
X63724Y21774D01*
X63518Y21440D01*
X63304Y21111D01*
X63081Y20787D01*
X62851Y20469D01*
X62614Y20156D01*
X62368Y19850D01*
X62115Y19549D01*
X61855Y19255D01*
X61588Y18967D01*
X61314Y18686D01*
X61033Y18412D01*
X60745Y18145D01*
X60451Y17885D01*
X60150Y17632D01*
X59844Y17386D01*
X59531Y17149D01*
X59213Y16919D01*
X58889Y16696D01*
X58560Y16482D01*
X58226Y16276D01*
X57886Y16079D01*
X57542Y15889D01*
X57194Y15708D01*
X56841Y15536D01*
X56484Y15373D01*
X56123Y15218D01*
X55758Y15072D01*
X55390Y14935D01*
X55019Y14808D01*
X54645Y14689D01*
X54267Y14580D01*
X53888Y14479D01*
X53506Y14389D01*
X53121Y14307D01*
X52735Y14236D01*
X52348Y14173D01*
X51959Y14120D01*
X51568Y14077D01*
X51177Y14043D01*
X50785Y14019D01*
X50393Y14005D01*
X50000Y14000D01*
X49607Y14005D01*
X49215Y14019D01*
X48823Y14043D01*
X48432Y14077D01*
X48041Y14120D01*
X47652Y14173D01*
X47265Y14236D01*
X46879Y14307D01*
X46494Y14389D01*
X46112Y14479D01*
X45733Y14580D01*
X45355Y14689D01*
X44981Y14808D01*
X44610Y14935D01*
X44242Y15072D01*
X43877Y15218D01*
X43516Y15373D01*
X43159Y15536D01*
X42806Y15708D01*
X42458Y15889D01*
X42114Y16079D01*
X41774Y16276D01*
X41440Y16482D01*
X41111Y16696D01*
X40787Y16919D01*
X40469Y17149D01*
X40156Y17386D01*
X39850Y17632D01*
X39549Y17885D01*
X39255Y18145D01*
X38967Y18412D01*
X38686Y18686D01*
X38412Y18967D01*
X38145Y19255D01*
X37885Y19549D01*
X37632Y19850D01*
X37386Y20156D01*
X37149Y20469D01*
X36919Y20787D01*
X36696Y21111D01*
X36482Y21440D01*
X36276Y21774D01*
X36079Y22114D01*
X35889Y22458D01*
X35708Y22806D01*
X35536Y23159D01*
X35373Y23516D01*
X35218Y23877D01*
X35072Y24242D01*
X34935Y24610D01*
X34808Y24981D01*
X34689Y25355D01*
X34580Y25733D01*
X34479Y26112D01*
X34389Y26494D01*
X34307Y26879D01*
X34236Y27265D01*
X34173Y27652D01*
X34120Y28041D01*
X34077Y28432D01*
X34043Y28823D01*
X34019Y29215D01*
X34005Y29607D01*
X34000Y30000D01*
X934000Y30000D02*
X934005Y30393D01*
X934019Y30785D01*
X934043Y31177D01*
X934077Y31568D01*
X934120Y31959D01*
X934173Y32348D01*
X934236Y32735D01*
X934307Y33121D01*
X934389Y33506D01*
X934479Y33888D01*
X934580Y34267D01*
X934689Y34645D01*
X934808Y35019D01*
X934935Y35390D01*
X935072Y35758D01*
X935218Y36123D01*
X935373Y36484D01*
X935536Y36841D01*
X935708Y37194D01*
X935889Y37542D01*
X936079Y37886D01*
X936276Y38226D01*
X936482Y38560D01*
X936696Y38889D01*
X936919Y39213D01*
X937149Y39531D01*
X937386Y39844D01*
X937632Y40150D01*
X937885Y40451D01*
X938145Y40745D01*
X938412Y41033D01*
X938686Y41314D01*
X938967Y41588D01*
X939255Y41855D01*
X939549Y42115D01*
X939850Y42368D01*
X940156Y42614D01*
X940469Y42851D01*
X940787Y43081D01*
X941111Y43304D01*
X941440Y43518D01*
X941774Y43724D01*
X942114Y43921D01*
X942458Y44111D01*
X942806Y44292D01*
X943159Y44464D01*
X943516Y44627D01*
X943877Y44782D01*
X944242Y44928D01*
X944610Y45065D01*
X944981Y45192D01*
X945355Y45311D01*
X945733Y45420D01*
X946112Y45521D01*
X946494Y45611D01*
X946879Y45693D01*
X947265Y45764D01*
X947652Y45827D01*
X948041Y45880D01*
X948432Y45923D01*
X948823Y45957D01*
X949215Y45981D01*
X949607Y45995D01*
X950000Y46000D01*
X950393Y45995D01*
X950785Y45981D01*
X951177Y45957D01*
X951568Y45923D01*
X951959Y45880D01*
X952348Y45827D01*
X952735Y45764D01*
X953121Y45693D01*
X953506Y45611D01*
X953888Y45521D01*
X954267Y45420D01*
X954645Y45311D01*
X955019Y45192D01*
X955390Y45065D01*
X955758Y44928D01*
X956123Y44782D01*
X956484Y44627D01*
X956841Y44464D01*
X957194Y44292D01*
X957542Y44111D01*
X957886Y43921D01*
X958226Y43724D01*
X958560Y43518D01*
X958889Y43304D01*
X959213Y43081D01*
X959531Y42851D01*
X959844Y42614D01*
X960150Y42368D01*
X960451Y42115D01*
X960745Y41855D01*
X961033Y41588D01*
X961314Y41314D01*
X961588Y41033D01*
X961855Y40745D01*
X962115Y40451D01*
X962368Y40150D01*
X962614Y39844D01*
X962851Y39531D01*
X963081Y39213D01*
X963304Y38889D01*
X963518Y38560D01*
X963724Y38226D01*
X963921Y37886D01*
X964111Y37542D01*
X964292Y37194D01*
X964464Y36841D01*
X964627Y36484D01*
X964782Y36123D01*
X964928Y35758D01*
X965065Y35390D01*
X965192Y35019D01*
X965311Y34645D01*
X965420Y34267D01*
X965521Y33888D01*
X965611Y33506D01*
X965693Y33121D01*
X965764Y32735D01*
X965827Y32348D01*
X965880Y31959D01*
X965923Y31568D01*
X965957Y31177D01*
X965981Y30785D01*
X965995Y30393D01*
X966000Y30000D01*
X965995Y29607D01*
X965981Y29215D01*
X965957Y28823D01*
X965923Y28432D01*
X965880Y28041D01*
X965827Y27652D01*
X965764Y27265D01*
X965693Y26879D01*
X965611Y26494D01*
X965521Y26112D01*
X965420Y25733D01*
X965311Y25355D01*
X965192Y24981D01*
X965065Y24610D01*
X964928Y24242D01*
X964782Y23877D01*
X964627Y23516D01*
X964464Y23159D01*
X964292Y22806D01*
X964111Y22458D01*
X963921Y22114D01*
X963724Y21774D01*
X963518Y21440D01*
X963304Y21111D01*
X963081Y20787D01*
X962851Y20469D01*
X962614Y20156D01*
X962368Y19850D01*
X962115Y19549D01*
X961855Y19255D01*
X961588Y18967D01*
X961314Y18686D01*
X961033Y18412D01*
X960745Y18145D01*
X960451Y17885D01*
X960150Y17632D01*
X959844Y17386D01*
X959531Y17149D01*
X959213Y16919D01*
X958889Y16696D01*
X958560Y16482D01*
X958226Y16276D01*
X957886Y16079D01*
X957542Y15889D01*
X957194Y15708D01*
X956841Y15536D01*
X956484Y15373D01*
X956123Y15218D01*
X955758Y15072D01*
X955390Y14935D01*
X955019Y14808D01*
X954645Y14689D01*
X954267Y14580D01*
X953888Y14479D01*
X953506Y14389D01*
X953121Y14307D01*
X952735Y14236D01*
X952348Y14173D01*
X951959Y14120D01*
X951568Y14077D01*
X951177Y14043D01*
X950785Y14019D01*
X950393Y14005D01*
X950000Y14000D01*
X949607Y14005D01*
X949215Y14019D01*
X948823Y14043D01*
X948432Y14077D01*
X948041Y14120D01*
X947652Y14173D01*
X947265Y14236D01*
X946879Y14307D01*
X946494Y14389D01*
X946112Y14479D01*
X945733Y14580D01*
X945355Y14689D01*
X944981Y14808D01*
X944610Y14935D01*
X944242Y15072D01*
X943877Y15218D01*
X943516Y15373D01*
X943159Y15536D01*
X942806Y15708D01*
X942458Y15889D01*
X942114Y16079D01*
X941774Y16276D01*
X941440Y16482D01*
X941111Y16696D01*
X940787Y16919D01*
X940469Y17149D01*
X940156Y17386D01*
X939850Y17632D01*
X939549Y17885D01*
X939255Y18145D01*
X938967Y18412D01*
X938686Y18686D01*
X938412Y18967D01*
X938145Y19255D01*
X937885Y19549D01*
X937632Y19850D01*
X937386Y20156D01*
X937149Y20469D01*
X936919Y20787D01*
X936696Y21111D01*
X936482Y21440D01*
X936276Y21774D01*
X936079Y22114D01*
X935889Y22458D01*
X935708Y22806D01*
X935536Y23159D01*
X935373Y23516D01*
X935218Y23877D01*
X935072Y24242D01*
X934935Y24610D01*
X934808Y24981D01*
X934689Y25355D01*
X934580Y25733D01*
X934479Y26112D01*
X934389Y26494D01*
X934307Y26879D01*
X934236Y27265D01*
X934173Y27652D01*
X934120Y28041D01*
X934077Y28432D01*
X934043Y28823D01*
X934019Y29215D01*
X934005Y29607D01*
X934000Y30000D01*
X594000Y30000D02*
X594005Y30393D01*
X594019Y30785D01*
X594043Y31177D01*
X594077Y31568D01*
X594120Y31959D01*
X594173Y32348D01*
X594236Y32735D01*
X594307Y33121D01*
X594389Y33506D01*
X594479Y33888D01*
X594580Y34267D01*
X594689Y34645D01*
X594808Y35019D01*
X594935Y35390D01*
X595072Y35758D01*
X595218Y36123D01*
X595373Y36484D01*
X595536Y36841D01*
X595708Y37194D01*
X595889Y37542D01*
X596079Y37886D01*
X596276Y38226D01*
X596482Y38560D01*
X596696Y38889D01*
X596919Y39213D01*
X597149Y39531D01*
X597386Y39844D01*
X597632Y40150D01*
X597885Y40451D01*
X598145Y40745D01*
X598412Y41033D01*
X598686Y41314D01*
X598967Y41588D01*
X599255Y41855D01*
X599549Y42115D01*
X599850Y42368D01*
X600156Y42614D01*
X600469Y42851D01*
X600787Y43081D01*
X601111Y43304D01*
X601440Y43518D01*
X601774Y43724D01*
X602114Y43921D01*
X602458Y44111D01*
X602806Y44292D01*
X603159Y44464D01*
X603516Y44627D01*
X603877Y44782D01*
X604242Y44928D01*
X604610Y45065D01*
X604981Y45192D01*
X605355Y45311D01*
X605733Y45420D01*
X606112Y45521D01*
X606494Y45611D01*
X606879Y45693D01*
X607265Y45764D01*
X607652Y45827D01*
X608041Y45880D01*
X608432Y45923D01*
X608823Y45957D01*
X609215Y45981D01*
X609607Y45995D01*
X610000Y46000D01*
X610393Y45995D01*
X610785Y45981D01*
X611177Y45957D01*
X611568Y45923D01*
X611959Y45880D01*
X612348Y45827D01*
X612735Y45764D01*
X613121Y45693D01*
X613506Y45611D01*
X613888Y45521D01*
X614267Y45420D01*
X614645Y45311D01*
X615019Y45192D01*
X615390Y45065D01*
X615758Y44928D01*
X616123Y44782D01*
X616484Y44627D01*
X616841Y44464D01*
X617194Y44292D01*
X617542Y44111D01*
X617886Y43921D01*
X618226Y43724D01*
X618560Y43518D01*
X618889Y43304D01*
X619213Y43081D01*
X619531Y42851D01*
X619844Y42614D01*
X620150Y42368D01*
X620451Y42115D01*
X620745Y41855D01*
X621033Y41588D01*
X621314Y41314D01*
X621588Y41033D01*
X621855Y40745D01*
X622115Y40451D01*
X622368Y40150D01*
X622614Y39844D01*
X622851Y39531D01*
X623081Y39213D01*
X623304Y38889D01*
X623518Y38560D01*
X623724Y38226D01*
X623921Y37886D01*
X624111Y37542D01*
X624292Y37194D01*
X624464Y36841D01*
X624627Y36484D01*
X624782Y36123D01*
X624928Y35758D01*
X625065Y35390D01*
X625192Y35019D01*
X625311Y34645D01*
X625420Y34267D01*
X625521Y33888D01*
X625611Y33506D01*
X625693Y33121D01*
X625764Y32735D01*
X625827Y32348D01*
X625880Y31959D01*
X625923Y31568D01*
X625957Y31177D01*
X625981Y30785D01*
X625995Y30393D01*
X626000Y30000D01*
X625995Y29607D01*
X625981Y29215D01*
X625957Y28823D01*
X625923Y28432D01*
X625880Y28041D01*
X625827Y27652D01*
X625764Y27265D01*
X625693Y26879D01*
X625611Y26494D01*
X625521Y26112D01*
X625420Y25733D01*
X625311Y25355D01*
X625192Y24981D01*
X625065Y24610D01*
X624928Y24242D01*
X624782Y23877D01*
X624627Y23516D01*
X624464Y23159D01*
X624292Y22806D01*
X624111Y22458D01*
X623921Y22114D01*
X623724Y21774D01*
X623518Y21440D01*
X623304Y21111D01*
X623081Y20787D01*
X622851Y20469D01*
X622614Y20156D01*
X622368Y19850D01*
X622115Y19549D01*
X621855Y19255D01*
X621588Y18967D01*
X621314Y18686D01*
X621033Y18412D01*
X620745Y18145D01*
X620451Y17885D01*
X620150Y17632D01*
X619844Y17386D01*
X619531Y17149D01*
X619213Y16919D01*
X618889Y16696D01*
X618560Y16482D01*
X618226Y16276D01*
X617886Y16079D01*
X617542Y15889D01*
X617194Y15708D01*
X616841Y15536D01*
X616484Y15373D01*
X616123Y15218D01*
X615758Y15072D01*
X615390Y14935D01*
X615019Y14808D01*
X614645Y14689D01*
X614267Y14580D01*
X613888Y14479D01*
X613506Y14389D01*
X613121Y14307D01*
X612735Y14236D01*
X612348Y14173D01*
X611959Y14120D01*
X611568Y14077D01*
X611177Y14043D01*
X610785Y14019D01*
X610393Y14005D01*
X610000Y14000D01*
X609607Y14005D01*
X609215Y14019D01*
X608823Y14043D01*
X608432Y14077D01*
X608041Y14120D01*
X607652Y14173D01*
X607265Y14236D01*
X606879Y14307D01*
X606494Y14389D01*
X606112Y14479D01*
X605733Y14580D01*
X605355Y14689D01*
X604981Y14808D01*
X604610Y14935D01*
X604242Y15072D01*
X603877Y15218D01*
X603516Y15373D01*
X603159Y15536D01*
X602806Y15708D01*
X602458Y15889D01*
X602114Y16079D01*
X601774Y16276D01*
X601440Y16482D01*
X601111Y16696D01*
X600787Y16919D01*
X600469Y17149D01*
X600156Y17386D01*
X599850Y17632D01*
X599549Y17885D01*
X599255Y18145D01*
X598967Y18412D01*
X598686Y18686D01*
X598412Y18967D01*
X598145Y19255D01*
X597885Y19549D01*
X597632Y19850D01*
X597386Y20156D01*
X597149Y20469D01*
X596919Y20787D01*
X596696Y21111D01*
X596482Y21440D01*
X596276Y21774D01*
X596079Y22114D01*
X595889Y22458D01*
X595708Y22806D01*
X595536Y23159D01*
X595373Y23516D01*
X595218Y23877D01*
X595072Y24242D01*
X594935Y24610D01*
X594808Y24981D01*
X594689Y25355D01*
X594580Y25733D01*
X594479Y26112D01*
X594389Y26494D01*
X594307Y26879D01*
X594236Y27265D01*
X594173Y27652D01*
X594120Y28041D01*
X594077Y28432D01*
X594043Y28823D01*
X594019Y29215D01*
X594005Y29607D01*
X594000Y30000D01*
X484000Y810000D02*
X484005Y810393D01*
X484019Y810785D01*
X484043Y811177D01*
X484077Y811568D01*
X484120Y811959D01*
X484173Y812348D01*
X484236Y812735D01*
X484307Y813121D01*
X484389Y813506D01*
X484479Y813888D01*
X484580Y814267D01*
X484689Y814645D01*
X484808Y815019D01*
X484935Y815390D01*
X485072Y815758D01*
X485218Y816123D01*
X485373Y816484D01*
X485536Y816841D01*
X485708Y817194D01*
X485889Y817542D01*
X486079Y817886D01*
X486276Y818226D01*
X486482Y818560D01*
X486696Y818889D01*
X486919Y819213D01*
X487149Y819531D01*
X487386Y819844D01*
X487632Y820150D01*
X487885Y820451D01*
X488145Y820745D01*
X488412Y821033D01*
X488686Y821314D01*
X488967Y821588D01*
X489255Y821855D01*
X489549Y822115D01*
X489850Y822368D01*
X490156Y822614D01*
X490469Y822851D01*
X490787Y823081D01*
X491111Y823304D01*
X491440Y823518D01*
X491774Y823724D01*
X492114Y823921D01*
X492458Y824111D01*
X492806Y824292D01*
X493159Y824464D01*
X493516Y824627D01*
X493877Y824782D01*
X494242Y824928D01*
X494610Y825065D01*
X494981Y825192D01*
X495355Y825311D01*
X495733Y825420D01*
X496112Y825521D01*
X496494Y825611D01*
X496879Y825693D01*
X497265Y825764D01*
X497652Y825827D01*
X498041Y825880D01*
X498432Y825923D01*
X498823Y825957D01*
X499215Y825981D01*
X499607Y825995D01*
X500000Y826000D01*
X500393Y825995D01*
X500785Y825981D01*
X501177Y825957D01*
X501568Y825923D01*
X501959Y825880D01*
X502348Y825827D01*
X502735Y825764D01*
X503121Y825693D01*
X503506Y825611D01*
X503888Y825521D01*
X504267Y825420D01*
X504645Y825311D01*
X505019Y825192D01*
X505390Y825065D01*
X505758Y824928D01*
X506123Y824782D01*
X506484Y824627D01*
X506841Y824464D01*
X507194Y824292D01*
X507542Y824111D01*
X507886Y823921D01*
X508226Y823724D01*
X508560Y823518D01*
X508889Y823304D01*
X509213Y823081D01*
X509531Y822851D01*
X509844Y822614D01*
X510150Y822368D01*
X510451Y822115D01*
X510745Y821855D01*
X511033Y821588D01*
X511314Y821314D01*
X511588Y821033D01*
X511855Y820745D01*
X512115Y820451D01*
X512368Y820150D01*
X512614Y819844D01*
X512851Y819531D01*
X513081Y819213D01*
X513304Y818889D01*
X513518Y818560D01*
X513724Y818226D01*
X513921Y817886D01*
X514111Y817542D01*
X514292Y817194D01*
X514464Y816841D01*
X514627Y816484D01*
X514782Y816123D01*
X514928Y815758D01*
X515065Y815390D01*
X515192Y815019D01*
X515311Y814645D01*
X515420Y814267D01*
X515521Y813888D01*
X515611Y813506D01*
X515693Y813121D01*
X515764Y812735D01*
X515827Y812348D01*
X515880Y811959D01*
X515923Y811568D01*
X515957Y811177D01*
X515981Y810785D01*
X515995Y810393D01*
X516000Y810000D01*
X515995Y809607D01*
X515981Y809215D01*
X515957Y808823D01*
X515923Y808432D01*
X515880Y808041D01*
X515827Y807652D01*
X515764Y807265D01*
X515693Y806879D01*
X515611Y806494D01*
X515521Y806112D01*
X515420Y805733D01*
X515311Y805355D01*
X515192Y804981D01*
X515065Y804610D01*
X514928Y804242D01*
X514782Y803877D01*
X514627Y803516D01*
X514464Y803159D01*
X514292Y802806D01*
X514111Y802458D01*
X513921Y802114D01*
X513724Y801774D01*
X513518Y801440D01*
X513304Y801111D01*
X513081Y800787D01*
X512851Y800469D01*
X512614Y800156D01*
X512368Y799850D01*
X512115Y799549D01*
X511855Y799255D01*
X511588Y798967D01*
X511314Y798686D01*
X511033Y798412D01*
X510745Y798145D01*
X510451Y797885D01*
X510150Y797632D01*
X509844Y797386D01*
X509531Y797149D01*
X509213Y796919D01*
X508889Y796696D01*
X508560Y796482D01*
X508226Y796276D01*
X507886Y796079D01*
X507542Y795889D01*
X507194Y795708D01*
X506841Y795536D01*
X506484Y795373D01*
X506123Y795218D01*
X505758Y795072D01*
X505390Y794935D01*
X505019Y794808D01*
X504645Y794689D01*
X504267Y794580D01*
X503888Y794479D01*
X503506Y794389D01*
X503121Y794307D01*
X502735Y794236D01*
X502348Y794173D01*
X501959Y794120D01*
X501568Y794077D01*
X501177Y794043D01*
X500785Y794019D01*
X500393Y794005D01*
X500000Y794000D01*
X499607Y794005D01*
X499215Y794019D01*
X498823Y794043D01*
X498432Y794077D01*
X498041Y794120D01*
X497652Y794173D01*
X497265Y794236D01*
X496879Y794307D01*
X496494Y794389D01*
X496112Y794479D01*
X495733Y794580D01*
X495355Y794689D01*
X494981Y794808D01*
X494610Y794935D01*
X494242Y795072D01*
X493877Y795218D01*
X493516Y795373D01*
X493159Y795536D01*
X492806Y795708D01*
X492458Y795889D01*
X492114Y796079D01*
X491774Y796276D01*
X491440Y796482D01*
X491111Y796696D01*
X490787Y796919D01*
X490469Y797149D01*
X490156Y797386D01*
X489850Y797632D01*
X489549Y797885D01*
X489255Y798145D01*
X488967Y798412D01*
X488686Y798686D01*
X488412Y798967D01*
X488145Y799255D01*
X487885Y799549D01*
X487632Y799850D01*
X487386Y800156D01*
X487149Y800469D01*
X486919Y800787D01*
X486696Y801111D01*
X486482Y801440D01*
X486276Y801774D01*
X486079Y802114D01*
X485889Y802458D01*
X485708Y802806D01*
X485536Y803159D01*
X485373Y803516D01*
X485218Y803877D01*
X485072Y804242D01*
X484935Y804610D01*
X484808Y804981D01*
X484689Y805355D01*
X484580Y805733D01*
X484479Y806112D01*
X484389Y806494D01*
X484307Y806879D01*
X484236Y807265D01*
X484173Y807652D01*
X484120Y808041D01*
X484077Y808432D01*
X484043Y808823D01*
X484019Y809215D01*
X484005Y809607D01*
X484000Y810000D01*
X214000Y340000D02*
X214005Y340393D01*
X214019Y340785D01*
X214043Y341177D01*
X214077Y341568D01*
X214120Y341959D01*
X214173Y342348D01*
X214236Y342735D01*
X214307Y343121D01*
X214389Y343506D01*
X214479Y343888D01*
X214580Y344267D01*
X214689Y344645D01*
X214808Y345019D01*
X214935Y345390D01*
X215072Y345758D01*
X215218Y346123D01*
X215373Y346484D01*
X215536Y346841D01*
X215708Y347194D01*
X215889Y347542D01*
X216079Y347886D01*
X216276Y348226D01*
X216482Y348560D01*
X216696Y348889D01*
X216919Y349213D01*
X217149Y349531D01*
X217386Y349844D01*
X217632Y350150D01*
X217885Y350451D01*
X218145Y350745D01*
X218412Y351033D01*
X218686Y351314D01*
X218967Y351588D01*
X219255Y351855D01*
X219549Y352115D01*
X219850Y352368D01*
X220156Y352614D01*
X220469Y352851D01*
X220787Y353081D01*
X221111Y353304D01*
X221440Y353518D01*
X221774Y353724D01*
X222114Y353921D01*
X222458Y354111D01*
X222806Y354292D01*
X223159Y354464D01*
X223516Y354627D01*
X223877Y354782D01*
X224242Y354928D01*
X224610Y355065D01*
X224981Y355192D01*
X225355Y355311D01*
X225733Y355420D01*
X226112Y355521D01*
X226494Y355611D01*
X226879Y355693D01*
X227265Y355764D01*
X227652Y355827D01*
X228041Y355880D01*
X228432Y355923D01*
X228823Y355957D01*
X229215Y355981D01*
X229607Y355995D01*
X230000Y356000D01*
X230393Y355995D01*
X230785Y355981D01*
X231177Y355957D01*
X231568Y355923D01*
X231959Y355880D01*
X232348Y355827D01*
X232735Y355764D01*
X233121Y355693D01*
X233506Y355611D01*
X233888Y355521D01*
X234267Y355420D01*
X234645Y355311D01*
X235019Y355192D01*
X235390Y355065D01*
X235758Y354928D01*
X236123Y354782D01*
X236484Y354627D01*
X236841Y354464D01*
X237194Y354292D01*
X237542Y354111D01*
X237886Y353921D01*
X238226Y353724D01*
X238560Y353518D01*
X238889Y353304D01*
X239213Y353081D01*
X239531Y352851D01*
X239844Y352614D01*
X240150Y352368D01*
X240451Y352115D01*
X240745Y351855D01*
X241033Y351588D01*
X241314Y351314D01*
X241588Y351033D01*
X241855Y350745D01*
X242115Y350451D01*
X242368Y350150D01*
X242614Y349844D01*
X242851Y349531D01*
X243081Y349213D01*
X243304Y348889D01*
X243518Y348560D01*
X243724Y348226D01*
X243921Y347886D01*
X244111Y347542D01*
X244292Y347194D01*
X244464Y346841D01*
X244627Y346484D01*
X244782Y346123D01*
X244928Y345758D01*
X245065Y345390D01*
X245192Y345019D01*
X245311Y344645D01*
X245420Y344267D01*
X245521Y343888D01*
X245611Y343506D01*
X245693Y343121D01*
X245764Y342735D01*
X245827Y342348D01*
X245880Y341959D01*
X245923Y341568D01*
X245957Y341177D01*
X245981Y340785D01*
X245995Y340393D01*
X246000Y340000D01*
X245995Y339607D01*
X245981Y339215D01*
X245957Y338823D01*
X245923Y338432D01*
X245880Y338041D01*
X245827Y337652D01*
X245764Y337265D01*
X245693Y336879D01*
X245611Y336494D01*
X245521Y336112D01*
X245420Y335733D01*
X245311Y335355D01*
X245192Y334981D01*
X245065Y334610D01*
X244928Y334242D01*
X244782Y333877D01*
X244627Y333516D01*
X244464Y333159D01*
X244292Y332806D01*
X244111Y332458D01*
X243921Y332114D01*
X243724Y331774D01*
X243518Y331440D01*
X243304Y331111D01*
X243081Y330787D01*
X242851Y330469D01*
X242614Y330156D01*
X242368Y329850D01*
X242115Y329549D01*
X241855Y329255D01*
X241588Y328967D01*
X241314Y328686D01*
X241033Y328412D01*
X240745Y328145D01*
X240451Y327885D01*
X240150Y327632D01*
X239844Y327386D01*
X239531Y327149D01*
X239213Y326919D01*
X238889Y326696D01*
X238560Y326482D01*
X238226Y326276D01*
X237886Y326079D01*
X237542Y325889D01*
X237194Y325708D01*
X236841Y325536D01*
X236484Y325373D01*
X236123Y325218D01*
X235758Y325072D01*
X235390Y324935D01*
X235019Y324808D01*
X234645Y324689D01*
X234267Y324580D01*
X233888Y324479D01*
X233506Y324389D01*
X233121Y324307D01*
X232735Y324236D01*
X232348Y324173D01*
X231959Y324120D01*
X231568Y324077D01*
X231177Y324043D01*
X230785Y324019D01*
X230393Y324005D01*
X230000Y324000D01*
X229607Y324005D01*
X229215Y324019D01*
X228823Y324043D01*
X228432Y324077D01*
X228041Y324120D01*
X227652Y324173D01*
X227265Y324236D01*
X226879Y324307D01*
X226494Y324389D01*
X226112Y324479D01*
X225733Y324580D01*
X225355Y324689D01*
X224981Y324808D01*
X224610Y324935D01*
X224242Y325072D01*
X223877Y325218D01*
X223516Y325373D01*
X223159Y325536D01*
X222806Y325708D01*
X222458Y325889D01*
X222114Y326079D01*
X221774Y326276D01*
X221440Y326482D01*
X221111Y326696D01*
X220787Y326919D01*
X220469Y327149D01*
X220156Y327386D01*
X219850Y327632D01*
X219549Y327885D01*
X219255Y328145D01*
X218967Y328412D01*
X218686Y328686D01*
X218412Y328967D01*
X218145Y329255D01*
X217885Y329549D01*
X217632Y329850D01*
X217386Y330156D01*
X217149Y330469D01*
X216919Y330787D01*
X216696Y331111D01*
X216482Y331440D01*
X216276Y331774D01*
X216079Y332114D01*
X215889Y332458D01*
X215708Y332806D01*
X215536Y333159D01*
X215373Y333516D01*
X215218Y333877D01*
X215072Y334242D01*
X214935Y334610D01*
X214808Y334981D01*
X214689Y335355D01*
X214580Y335733D01*
X214479Y336112D01*
X214389Y336494D01*
X214307Y336879D01*
X214236Y337265D01*
X214173Y337652D01*
X214120Y338041D01*
X214077Y338432D01*
X214043Y338823D01*
X214019Y339215D01*
X214005Y339607D01*
X214000Y340000D01*
X663731Y498128D02*
X663736Y498521D01*
X663750Y498913D01*
X663774Y499305D01*
X663808Y499696D01*
X663851Y500087D01*
X663904Y500476D01*
X663967Y500863D01*
X664038Y501249D01*
X664120Y501634D01*
X664210Y502016D01*
X664311Y502395D01*
X664420Y502773D01*
X664539Y503147D01*
X664666Y503518D01*
X664803Y503886D01*
X664949Y504251D01*
X665104Y504612D01*
X665267Y504969D01*
X665439Y505322D01*
X665620Y505670D01*
X665810Y506014D01*
X666007Y506354D01*
X666213Y506688D01*
X666427Y507017D01*
X666650Y507341D01*
X666880Y507659D01*
X667117Y507972D01*
X667363Y508278D01*
X667616Y508579D01*
X667876Y508873D01*
X668143Y509161D01*
X668417Y509442D01*
X668698Y509716D01*
X668986Y509983D01*
X669280Y510243D01*
X669581Y510496D01*
X669887Y510742D01*
X670200Y510979D01*
X670518Y511209D01*
X670842Y511432D01*
X671171Y511646D01*
X671505Y511852D01*
X671845Y512049D01*
X672189Y512239D01*
X672537Y512420D01*
X672890Y512592D01*
X673247Y512755D01*
X673608Y512910D01*
X673973Y513056D01*
X674341Y513193D01*
X674712Y513320D01*
X675086Y513439D01*
X675464Y513548D01*
X675843Y513649D01*
X676225Y513739D01*
X676610Y513821D01*
X676996Y513892D01*
X677383Y513955D01*
X677772Y514008D01*
X678163Y514051D01*
X678554Y514085D01*
X678946Y514109D01*
X679338Y514123D01*
X679731Y514128D01*
X680124Y514123D01*
X680516Y514109D01*
X680908Y514085D01*
X681299Y514051D01*
X681690Y514008D01*
X682079Y513955D01*
X682466Y513892D01*
X682852Y513821D01*
X683237Y513739D01*
X683619Y513649D01*
X683998Y513548D01*
X684376Y513439D01*
X684750Y513320D01*
X685121Y513193D01*
X685489Y513056D01*
X685854Y512910D01*
X686215Y512755D01*
X686572Y512592D01*
X686925Y512420D01*
X687273Y512239D01*
X687617Y512049D01*
X687957Y511852D01*
X688291Y511646D01*
X688620Y511432D01*
X688944Y511209D01*
X689262Y510979D01*
X689575Y510742D01*
X689881Y510496D01*
X690182Y510243D01*
X690476Y509983D01*
X690764Y509716D01*
X691045Y509442D01*
X691319Y509161D01*
X691586Y508873D01*
X691846Y508579D01*
X692099Y508278D01*
X692345Y507972D01*
X692582Y507659D01*
X692812Y507341D01*
X693035Y507017D01*
X693249Y506688D01*
X693455Y506354D01*
X693652Y506014D01*
X693842Y505670D01*
X694023Y505322D01*
X694195Y504969D01*
X694358Y504612D01*
X694513Y504251D01*
X694659Y503886D01*
X694796Y503518D01*
X694923Y503147D01*
X695042Y502773D01*
X695151Y502395D01*
X695252Y502016D01*
X695342Y501634D01*
X695424Y501249D01*
X695495Y500863D01*
X695558Y500476D01*
X695611Y500087D01*
X695654Y499696D01*
X695688Y499305D01*
X695712Y498913D01*
X695726Y498521D01*
X695731Y498128D01*
X695726Y497735D01*
X695712Y497343D01*
X695688Y496951D01*
X695654Y496560D01*
X695611Y496169D01*
X695558Y495780D01*
X695495Y495393D01*
X695424Y495007D01*
X695342Y494622D01*
X695252Y494240D01*
X695151Y493861D01*
X695042Y493483D01*
X694923Y493109D01*
X694796Y492738D01*
X694659Y492370D01*
X694513Y492005D01*
X694358Y491644D01*
X694195Y491287D01*
X694023Y490934D01*
X693842Y490586D01*
X693652Y490242D01*
X693455Y489902D01*
X693249Y489568D01*
X693035Y489239D01*
X692812Y488915D01*
X692582Y488597D01*
X692345Y488284D01*
X692099Y487978D01*
X691846Y487677D01*
X691586Y487383D01*
X691319Y487095D01*
X691045Y486814D01*
X690764Y486540D01*
X690476Y486273D01*
X690182Y486013D01*
X689881Y485760D01*
X689575Y485514D01*
X689262Y485277D01*
X688944Y485047D01*
X688620Y484824D01*
X688291Y484610D01*
X687957Y484404D01*
X687617Y484207D01*
X687273Y484017D01*
X686925Y483836D01*
X686572Y483664D01*
X686215Y483501D01*
X685854Y483346D01*
X685489Y483200D01*
X685121Y483063D01*
X684750Y482936D01*
X684376Y482817D01*
X683998Y482708D01*
X683619Y482607D01*
X683237Y482517D01*
X682852Y482435D01*
X682466Y482364D01*
X682079Y482301D01*
X681690Y482248D01*
X681299Y482205D01*
X680908Y482171D01*
X680516Y482147D01*
X680124Y482133D01*
X679731Y482128D01*
X679338Y482133D01*
X678946Y482147D01*
X678554Y482171D01*
X678163Y482205D01*
X677772Y482248D01*
X677383Y482301D01*
X676996Y482364D01*
X676610Y482435D01*
X676225Y482517D01*
X675843Y482607D01*
X675464Y482708D01*
X675086Y482817D01*
X674712Y482936D01*
X674341Y483063D01*
X673973Y483200D01*
X673608Y483346D01*
X673247Y483501D01*
X672890Y483664D01*
X672537Y483836D01*
X672189Y484017D01*
X671845Y484207D01*
X671505Y484404D01*
X671171Y484610D01*
X670842Y484824D01*
X670518Y485047D01*
X670200Y485277D01*
X669887Y485514D01*
X669581Y485760D01*
X669280Y486013D01*
X668986Y486273D01*
X668698Y486540D01*
X668417Y486814D01*
X668143Y487095D01*
X667876Y487383D01*
X667616Y487677D01*
X667363Y487978D01*
X667117Y488284D01*
X666880Y488597D01*
X666650Y488915D01*
X666427Y489239D01*
X666213Y489568D01*
X666007Y489902D01*
X665810Y490242D01*
X665620Y490586D01*
X665439Y490934D01*
X665267Y491287D01*
X665104Y491644D01*
X664949Y492005D01*
X664803Y492370D01*
X664666Y492738D01*
X664539Y493109D01*
X664420Y493483D01*
X664311Y493861D01*
X664210Y494240D01*
X664120Y494622D01*
X664038Y495007D01*
X663967Y495393D01*
X663904Y495780D01*
X663851Y496169D01*
X663808Y496560D01*
X663774Y496951D01*
X663750Y497343D01*
X663736Y497735D01*
X663731Y498128D01*
D12*
X212282Y67506D02*
X212282Y52507D01*
X222281Y52507D01*
X228654Y67506D02*
X238653Y67506D01*
X228654Y67506D02*
X228654Y52507D01*
X238653Y52507D01*
X233653Y60006D02*
X228654Y60006D01*
X245025Y52507D02*
X245025Y67506D01*
X245025Y52507D02*
X252525Y52507D01*
X255025Y55007D01*
X255025Y65006D01*
X252525Y67506D01*
X245025Y67506D01*
X261397Y50007D02*
X271396Y50007D01*
X277768Y55007D02*
X277768Y65006D01*
X280268Y67506D01*
X285268Y67506D01*
X287768Y65006D01*
X287768Y55007D01*
X285268Y52507D01*
X280268Y52507D01*
X277768Y55007D01*
X287768Y65006D01*
X294140Y65006D02*
X294140Y55007D01*
X294140Y65006D02*
X296640Y67506D01*
X301639Y67506D01*
X304139Y65006D01*
X304139Y55007D01*
X301639Y52507D01*
X296640Y52507D01*
X294140Y55007D01*
X304139Y65006D01*
X372282Y67506D02*
X372282Y52507D01*
X382281Y52507D01*
X388654Y67506D02*
X398653Y67506D01*
X388654Y67506D02*
X388654Y52507D01*
X398653Y52507D01*
X393653Y60006D02*
X388654Y60006D01*
X405025Y52507D02*
X405025Y67506D01*
X405025Y52507D02*
X412525Y52507D01*
X415025Y55007D01*
X415025Y65006D01*
X412525Y67506D01*
X405025Y67506D01*
X421397Y50007D02*
X431396Y50007D01*
X437768Y55007D02*
X437768Y65006D01*
X440268Y67506D01*
X445268Y67506D01*
X447768Y65006D01*
X447768Y55007D01*
X445268Y52507D01*
X440268Y52507D01*
X437768Y55007D01*
X447768Y65006D01*
X454140Y62506D02*
X459140Y67506D01*
X459140Y52507D01*
X464139Y52507D02*
X454140Y52507D01*
X532282Y52507D02*
X532282Y67506D01*
X532282Y52507D02*
X542281Y52507D01*
X548654Y67506D02*
X558653Y67506D01*
X548654Y67506D02*
X548654Y52507D01*
X558653Y52507D01*
X553653Y60006D02*
X548654Y60006D01*
X565025Y52507D02*
X565025Y67506D01*
X565025Y52507D02*
X572525Y52507D01*
X575025Y55007D01*
X575025Y65006D01*
X572525Y67506D01*
X565025Y67506D01*
X581397Y50007D02*
X591396Y50007D01*
X597768Y55007D02*
X597768Y65006D01*
X600268Y67506D01*
X605268Y67506D01*
X607768Y65006D01*
X607768Y55007D01*
X605268Y52507D01*
X600268Y52507D01*
X597768Y55007D01*
X607768Y65006D01*
X614140Y52507D02*
X624139Y52507D01*
X614140Y52507D02*
X624139Y62506D01*
X624139Y65006D01*
X621639Y67506D01*
X616640Y67506D01*
X614140Y65006D01*
X692282Y67506D02*
X692282Y52507D01*
X702281Y52507D01*
X708654Y67506D02*
X718653Y67506D01*
X708654Y67506D02*
X708654Y52507D01*
X718653Y52507D01*
X713653Y60006D02*
X708654Y60006D01*
X725025Y52507D02*
X725025Y67506D01*
X725025Y52507D02*
X732525Y52507D01*
X735025Y55007D01*
X735025Y65006D01*
X732525Y67506D01*
X725025Y67506D01*
X741397Y50007D02*
X751396Y50007D01*
X757768Y55007D02*
X757768Y65006D01*
X760268Y67506D01*
X765268Y67506D01*
X767768Y65006D01*
X767768Y55007D01*
X765268Y52507D01*
X760268Y52507D01*
X757768Y55007D01*
X767768Y65006D01*
X774140Y65006D02*
X776640Y67506D01*
X781639Y67506D01*
X784139Y65006D01*
X784139Y62506D01*
X781639Y60006D01*
X779140Y60006D01*
X781639Y60006D02*
X784139Y57507D01*
X784139Y55007D01*
X781639Y52507D01*
X776640Y52507D01*
X774140Y55007D01*
X292282Y222507D02*
X292282Y237506D01*
X292282Y222507D02*
X302281Y222507D01*
X308654Y237506D02*
X318653Y237506D01*
X308654Y237506D02*
X308654Y222507D01*
X318653Y222507D01*
X313653Y230006D02*
X308654Y230006D01*
X325025Y222507D02*
X325025Y237506D01*
X325025Y222507D02*
X332525Y222507D01*
X335025Y225007D01*
X335025Y235006D01*
X332525Y237506D01*
X325025Y237506D01*
X341397Y220007D02*
X351396Y220007D01*
X357768Y225007D02*
X357768Y235006D01*
X360268Y237506D01*
X365268Y237506D01*
X367768Y235006D01*
X367768Y225007D01*
X365268Y222507D01*
X360268Y222507D01*
X357768Y225007D01*
X367768Y235006D01*
X381639Y237506D02*
X381639Y222507D01*
X374140Y230006D02*
X381639Y237506D01*
X384139Y230006D02*
X374140Y230006D01*
X452282Y237506D02*
X452282Y222507D01*
X462281Y222507D01*
X468654Y237506D02*
X478653Y237506D01*
X468654Y237506D02*
X468654Y222507D01*
X478653Y222507D01*
X473653Y230006D02*
X468654Y230006D01*
X485025Y222507D02*
X485025Y237506D01*
X485025Y222507D02*
X492525Y222507D01*
X495025Y225007D01*
X495025Y235006D01*
X492525Y237506D01*
X485025Y237506D01*
X501397Y220007D02*
X511396Y220007D01*
X517768Y225007D02*
X517768Y235006D01*
X520268Y237506D01*
X525268Y237506D01*
X527768Y235006D01*
X527768Y225007D01*
X525268Y222507D01*
X520268Y222507D01*
X517768Y225007D01*
X527768Y235006D01*
X534140Y237506D02*
X544139Y237506D01*
X534140Y237506D02*
X534140Y230006D01*
X539140Y232506D01*
X541639Y232506D01*
X544139Y230006D01*
X544139Y225007D01*
X541639Y222507D01*
X536640Y222507D01*
X534140Y225007D01*
X612282Y222507D02*
X612282Y237506D01*
X612282Y222507D02*
X622281Y222507D01*
X628654Y237506D02*
X638653Y237506D01*
X628654Y237506D02*
X628654Y222507D01*
X638653Y222507D01*
X633653Y230006D02*
X628654Y230006D01*
X645025Y222507D02*
X645025Y237506D01*
X645025Y222507D02*
X652525Y222507D01*
X655025Y225007D01*
X655025Y235006D01*
X652525Y237506D01*
X645025Y237506D01*
X661397Y220007D02*
X671396Y220007D01*
X677768Y225007D02*
X677768Y235006D01*
X680268Y237506D01*
X685268Y237506D01*
X687768Y235006D01*
X687768Y225007D01*
X685268Y222507D01*
X680268Y222507D01*
X677768Y225007D01*
X687768Y235006D01*
X699140Y235006D02*
X704139Y237506D01*
X699140Y235006D02*
X694140Y230006D01*
X694140Y225007D01*
X696640Y222507D01*
X701639Y222507D01*
X704139Y225007D01*
X704139Y227507D01*
X701639Y230006D01*
X694140Y230006D01*
X532282Y392507D02*
X532282Y407506D01*
X532282Y392507D02*
X542281Y392507D01*
X548654Y407506D02*
X558653Y407506D01*
X548654Y407506D02*
X548654Y392507D01*
X558653Y392507D01*
X553653Y400006D02*
X548654Y400006D01*
X565025Y392507D02*
X565025Y407506D01*
X565025Y392507D02*
X572525Y392507D01*
X575025Y395007D01*
X575025Y405006D01*
X572525Y407506D01*
X565025Y407506D01*
X581397Y390007D02*
X591396Y390007D01*
X597768Y395007D02*
X597768Y405006D01*
X600268Y407506D01*
X605268Y407506D01*
X607768Y405006D01*
X607768Y395007D01*
X605268Y392507D01*
X600268Y392507D01*
X597768Y395007D01*
X607768Y405006D01*
X614140Y405006D02*
X616640Y407506D01*
X621639Y407506D01*
X624139Y405006D01*
X624139Y402506D01*
X621639Y400006D01*
X624139Y397507D01*
X624139Y395007D01*
X621639Y392507D01*
X616640Y392507D01*
X614140Y395007D01*
X614140Y397507D01*
X616640Y400006D01*
X614140Y402506D01*
X614140Y405006D01*
X616640Y400006D02*
X621639Y400006D01*
X372282Y407506D02*
X372282Y392507D01*
X382281Y392507D01*
X388654Y407506D02*
X398653Y407506D01*
X388654Y407506D02*
X388654Y392507D01*
X398653Y392507D01*
X393653Y400006D02*
X388654Y400006D01*
X405025Y392507D02*
X405025Y407506D01*
X405025Y392507D02*
X412525Y392507D01*
X415025Y395007D01*
X415025Y405006D01*
X412525Y407506D01*
X405025Y407506D01*
X421397Y390007D02*
X431396Y390007D01*
X437768Y395007D02*
X437768Y405006D01*
X440268Y407506D01*
X445268Y407506D01*
X447768Y405006D01*
X447768Y395007D01*
X445268Y392507D01*
X440268Y392507D01*
X437768Y395007D01*
X447768Y405006D01*
X454140Y407506D02*
X464139Y407506D01*
X464139Y405006D01*
X454140Y395007D01*
X454140Y392507D01*
X452282Y572507D02*
X452282Y587506D01*
X452282Y572507D02*
X462281Y572507D01*
X468654Y587506D02*
X478653Y587506D01*
X468654Y587506D02*
X468654Y572507D01*
X478653Y572507D01*
X473653Y580006D02*
X468654Y580006D01*
X485025Y572507D02*
X485025Y587506D01*
X485025Y572507D02*
X492525Y572507D01*
X495025Y575007D01*
X495025Y585006D01*
X492525Y587506D01*
X485025Y587506D01*
X501397Y570007D02*
X511396Y570007D01*
X517768Y575007D02*
X517768Y585006D01*
X520268Y587506D01*
X525268Y587506D01*
X527768Y585006D01*
X527768Y575007D01*
X525268Y572507D01*
X520268Y572507D01*
X517768Y575007D01*
X527768Y585006D01*
X534140Y575007D02*
X536640Y572507D01*
X541639Y572507D01*
X544139Y575007D01*
X544139Y585006D01*
X541639Y587506D01*
X536640Y587506D01*
X534140Y585006D01*
X534140Y582506D01*
X536640Y580006D01*
X544139Y580006D01*
D13*
X860000Y50000D02*
X860000Y20000D01*
X850000Y30000D01*
X870000Y30000D01*
X860000Y20000D01*
X150000Y20000D02*
X150000Y50000D01*
X160000Y40000D01*
X140000Y40000D01*
X150000Y50000D01*
X469641Y714519D02*
X443660Y729519D01*
X455981Y710859D02*
X469641Y714519D01*
X455981Y710859D02*
X465981Y728179D01*
X469641Y714519D01*
X114641Y99641D02*
X88660Y114641D01*
X102321Y118301D01*
X92321Y100981D01*
X88660Y114641D01*
X526340Y720596D02*
X552321Y735596D01*
X548660Y721936D01*
X538660Y739256D01*
X552321Y735596D01*
X907320Y115718D02*
X881340Y100718D01*
X885000Y114378D01*
X895000Y97058D01*
X881340Y100718D01*
D14*
X176765Y205505D02*
X175324Y206945D01*
X172443Y206945D01*
X171002Y205505D01*
X171002Y204064D01*
X172443Y202624D01*
X175324Y202624D01*
X176765Y201183D01*
X176765Y199743D01*
X175324Y198302D01*
X172443Y198302D01*
X171002Y199743D01*
X181798Y198302D02*
X184679Y198302D01*
X181798Y198302D02*
X180358Y199743D01*
X180358Y202624D01*
X181798Y204064D01*
X184679Y204064D01*
X186120Y202624D01*
X186120Y201183D01*
X180358Y201183D01*
X189713Y198302D02*
X189713Y204064D01*
X194034Y204064D01*
X195475Y202624D01*
X195475Y198302D01*
X199068Y198302D02*
X203390Y198302D01*
X204830Y199743D01*
X203390Y201183D01*
X200509Y201183D01*
X199068Y202624D01*
X200509Y204064D01*
X204830Y204064D01*
X209864Y198302D02*
X212745Y198302D01*
X214185Y199743D01*
X214185Y202624D01*
X212745Y204064D01*
X209864Y204064D01*
X208423Y202624D01*
X208423Y199743D01*
X209864Y198302D01*
X217778Y198302D02*
X217778Y204064D01*
X217778Y201183D02*
X220659Y204064D01*
X222100Y204064D01*
X225574Y204064D02*
X227015Y204064D01*
X227015Y198302D01*
X228455Y198302D02*
X225574Y198302D01*
X227015Y206945D02*
X227015Y208386D01*
X231811Y204064D02*
X231811Y199743D01*
X233252Y198302D01*
X237573Y198302D01*
X237573Y204064D01*
X241166Y204064D02*
X241166Y198302D01*
X241166Y204064D02*
X242607Y204064D01*
X244047Y202624D01*
X244047Y198302D01*
X244047Y202624D02*
X245488Y204064D01*
X246929Y202624D01*
X246929Y198302D01*
X143242Y190265D02*
X141801Y191705D01*
X138920Y191705D01*
X137480Y190265D01*
X137480Y184503D01*
X138920Y183062D01*
X141801Y183062D01*
X143242Y184503D01*
X143242Y187384D01*
X140361Y187384D01*
X148275Y188824D02*
X151157Y188824D01*
X152597Y187384D01*
X152597Y183062D01*
X148275Y183062D01*
X146835Y184503D01*
X148275Y185943D01*
X152597Y185943D01*
X156190Y183062D02*
X156190Y191705D01*
X156190Y183062D02*
X160512Y183062D01*
X161952Y184503D01*
X161952Y187384D01*
X160512Y188824D01*
X156190Y188824D01*
X165545Y188824D02*
X165545Y183062D01*
X165545Y185943D02*
X168426Y188824D01*
X169867Y188824D01*
X173341Y188824D02*
X174782Y188824D01*
X174782Y183062D01*
X176222Y183062D02*
X173341Y183062D01*
X174782Y191705D02*
X174782Y193146D01*
X181019Y183062D02*
X183900Y183062D01*
X181019Y183062D02*
X179578Y184503D01*
X179578Y187384D01*
X181019Y188824D01*
X183900Y188824D01*
X185340Y187384D01*
X185340Y185943D01*
X179578Y185943D01*
X188933Y191705D02*
X190374Y191705D01*
X190374Y183062D01*
X191814Y183062D02*
X188933Y183062D01*
X208847Y191705D02*
X210287Y190265D01*
X208847Y191705D02*
X205966Y191705D01*
X204525Y190265D01*
X204525Y184503D01*
X205966Y183062D01*
X208847Y183062D01*
X210287Y184503D01*
X210287Y187384D01*
X207406Y187384D01*
X213880Y184503D02*
X213880Y183062D01*
X213880Y184503D02*
X215321Y184503D01*
X215321Y183062D01*
X213880Y183062D01*
X227913Y183062D02*
X227913Y191705D01*
X232235Y191705D01*
X233675Y190265D01*
X233675Y187384D01*
X232235Y185943D01*
X227913Y185943D01*
X230794Y185943D02*
X233675Y183062D01*
X238709Y183062D02*
X241590Y183062D01*
X238709Y183062D02*
X237268Y184503D01*
X237268Y187384D01*
X238709Y188824D01*
X241590Y188824D01*
X243031Y187384D01*
X243031Y185943D01*
X237268Y185943D01*
X249505Y180181D02*
X250945Y180181D01*
X252386Y181621D01*
X252386Y188824D01*
X248064Y188824D01*
X246623Y187384D01*
X246623Y184503D01*
X248064Y183062D01*
X252386Y183062D01*
X255979Y184503D02*
X255979Y188824D01*
X255979Y184503D02*
X257419Y183062D01*
X261741Y183062D01*
X261741Y188824D01*
X257419Y191705D02*
X257419Y193146D01*
X260300Y193146D02*
X260300Y191705D01*
X266774Y183062D02*
X269656Y183062D01*
X266774Y183062D02*
X265334Y184503D01*
X265334Y187384D01*
X266774Y188824D01*
X269656Y188824D01*
X271096Y187384D01*
X271096Y185943D01*
X265334Y185943D01*
X274689Y183062D02*
X279011Y183062D01*
X280451Y184503D01*
X279011Y185943D01*
X276130Y185943D01*
X274689Y187384D01*
X276130Y188824D01*
X280451Y188824D01*
D15*
X729368Y244666D02*
X729368Y255343D01*
X732927Y251784D01*
X736486Y255343D01*
X736486Y244666D01*
X742841Y244666D02*
X746400Y244666D01*
X748180Y246446D01*
X748180Y250005D01*
X746400Y251784D01*
X742841Y251784D01*
X741062Y250005D01*
X741062Y246446D01*
X742841Y244666D01*
X759874Y244666D02*
X759874Y255343D01*
X759874Y244666D02*
X754535Y244666D01*
X752755Y246446D01*
X752755Y250005D01*
X754535Y251784D01*
X759874Y251784D01*
X764449Y251784D02*
X764449Y246446D01*
X766229Y244666D01*
X771568Y244666D01*
X771568Y251784D01*
X776143Y255343D02*
X777923Y255343D01*
X777923Y244666D01*
X779702Y244666D02*
X776143Y244666D01*
X785719Y244666D02*
X789278Y244666D01*
X785719Y244666D02*
X783939Y246446D01*
X783939Y250005D01*
X785719Y251784D01*
X789278Y251784D01*
X791057Y250005D01*
X791057Y248225D01*
X783939Y248225D01*
X807327Y244666D02*
X810886Y244666D01*
X809107Y244666D02*
X809107Y255343D01*
X810886Y255343D02*
X807327Y255343D01*
X815123Y255343D02*
X815123Y244666D01*
X820462Y244666D01*
X822241Y246446D01*
X822241Y253564D01*
X820462Y255343D01*
X815123Y255343D01*
X826817Y251784D02*
X828597Y251784D01*
X828597Y250005D01*
X826817Y250005D01*
X826817Y251784D01*
X826817Y246446D02*
X828597Y246446D01*
X828597Y244666D01*
X826817Y244666D01*
X826817Y246446D01*
D16*
X790000Y212500D03*
D17*
X119518Y152888D02*
X114773Y152888D01*
X117145Y152888D02*
X117145Y167124D01*
X114773Y167124D02*
X119518Y167124D01*
X125063Y167124D02*
X134554Y167124D01*
X125063Y167124D02*
X125063Y152888D01*
X134554Y152888D01*
X129809Y160006D02*
X125063Y160006D01*
X140499Y167124D02*
X140499Y152888D01*
X147617Y152888D01*
X149990Y155261D01*
X149990Y164751D01*
X147617Y167124D01*
X140499Y167124D01*
X155935Y150515D02*
X165426Y150515D01*
X180862Y164751D02*
X178490Y167124D01*
X173744Y167124D01*
X171372Y164751D01*
X171372Y155261D01*
X173744Y152888D01*
X178490Y152888D01*
X180862Y155261D01*
X180862Y160006D01*
X176117Y160006D01*
X186808Y152888D02*
X186808Y167124D01*
X193926Y167124D01*
X196298Y164751D01*
X196298Y160006D01*
X193926Y157633D01*
X186808Y157633D01*
X191553Y157633D02*
X196298Y152888D01*
X202244Y150515D02*
X211734Y150515D01*
X217680Y152888D02*
X217680Y167124D01*
X222425Y162379D01*
X227170Y167124D01*
X227170Y152888D01*
X235488Y152888D02*
X240234Y152888D01*
X242607Y155261D01*
X242607Y160006D01*
X240234Y162379D01*
X235488Y162379D01*
X233116Y160006D01*
X233116Y155261D01*
X235488Y152888D01*
X258043Y152888D02*
X258043Y167124D01*
X258043Y152888D02*
X250925Y152888D01*
X248552Y155261D01*
X248552Y160006D01*
X250925Y162379D01*
X258043Y162379D01*
X263988Y162379D02*
X263988Y155261D01*
X266361Y152888D01*
X273479Y152888D01*
X273479Y162379D01*
X279424Y167124D02*
X281797Y167124D01*
X281797Y152888D01*
X284169Y152888D02*
X279424Y152888D01*
X292087Y152888D02*
X296833Y152888D01*
X292087Y152888D02*
X289715Y155261D01*
X289715Y160006D01*
X292087Y162379D01*
X296833Y162379D01*
X299205Y160006D01*
X299205Y157633D01*
X289715Y157633D01*
X305151Y150515D02*
X314641Y150515D01*
X320587Y152888D02*
X320587Y167124D01*
X327705Y167124D01*
X330078Y164751D01*
X330078Y160006D01*
X327705Y157633D01*
X320587Y157633D01*
X325332Y157633D02*
X330078Y152888D01*
X338396Y152888D02*
X343141Y152888D01*
X338396Y152888D02*
X336023Y155261D01*
X336023Y160006D01*
X338396Y162379D01*
X343141Y162379D01*
X345514Y160006D01*
X345514Y157633D01*
X336023Y157633D01*
X351459Y162379D02*
X356204Y152888D01*
X360950Y162379D01*
X366895Y150515D02*
X376386Y150515D01*
X382331Y162379D02*
X387076Y167124D01*
X387076Y152888D01*
X382331Y152888D02*
X391822Y152888D01*
D15*
X708858Y39868D02*
X708858Y29191D01*
X712417Y36309D02*
X708858Y39868D01*
X712417Y36309D02*
X715976Y39868D01*
X715976Y29191D01*
X722331Y36309D02*
X725890Y36309D01*
X727670Y34530D01*
X727670Y29191D01*
X722331Y29191D01*
X720551Y30971D01*
X722331Y32750D01*
X727670Y32750D01*
X739364Y29191D02*
X739364Y39868D01*
X739364Y29191D02*
X734025Y29191D01*
X732245Y30971D01*
X732245Y34530D01*
X734025Y36309D01*
X739364Y36309D01*
X743939Y36309D02*
X743939Y29191D01*
X743939Y32750D02*
X747498Y36309D01*
X749278Y36309D01*
X753684Y36309D02*
X755464Y36309D01*
X755464Y29191D01*
X757243Y29191D02*
X753684Y29191D01*
X755464Y39868D02*
X755464Y41648D01*
X768598Y39868D02*
X768598Y29191D01*
X763260Y29191D01*
X761480Y30971D01*
X761480Y34530D01*
X763260Y36309D01*
X768598Y36309D01*
X691613Y19039D02*
X689834Y20818D01*
X686275Y20818D01*
X684495Y19039D01*
X684495Y17259D01*
X686275Y15480D01*
X689834Y15480D01*
X691613Y13700D01*
X691613Y11921D01*
X689834Y10141D01*
X686275Y10141D01*
X684495Y11921D01*
X696189Y17259D02*
X696189Y6582D01*
X696189Y17259D02*
X701528Y17259D01*
X703307Y15480D01*
X703307Y11921D01*
X701528Y10141D01*
X696189Y10141D01*
X709662Y17259D02*
X713222Y17259D01*
X715001Y15480D01*
X715001Y10141D01*
X709662Y10141D01*
X707883Y11921D01*
X709662Y13700D01*
X715001Y13700D01*
X719577Y17259D02*
X721356Y17259D01*
X721356Y10141D01*
X719577Y10141D02*
X723136Y10141D01*
X721356Y20818D02*
X721356Y22598D01*
X727373Y17259D02*
X727373Y10141D01*
X727373Y17259D02*
X732711Y17259D01*
X734491Y15480D01*
X734491Y10141D01*
X750761Y10141D02*
X757879Y10141D01*
X750761Y10141D02*
X757879Y17259D01*
X757879Y19039D01*
X756099Y20818D01*
X752540Y20818D01*
X750761Y19039D01*
X762455Y19039D02*
X762455Y11921D01*
X762455Y19039D02*
X764234Y20818D01*
X767793Y20818D01*
X769573Y19039D01*
X769573Y11921D01*
X767793Y10141D01*
X764234Y10141D01*
X762455Y11921D01*
X769573Y19039D01*
X774149Y17259D02*
X777708Y20818D01*
X777708Y10141D01*
X774149Y10141D02*
X781267Y10141D01*
X785843Y11921D02*
X787622Y10141D01*
X791181Y10141D01*
X792961Y11921D01*
X792961Y19039D01*
X791181Y20818D01*
X787622Y20818D01*
X785843Y19039D01*
X785843Y17259D01*
X787622Y15480D01*
X792961Y15480D01*
D17*
X506386Y152888D02*
X506386Y167124D01*
X506386Y152888D02*
X515876Y152888D01*
X521822Y162379D02*
X524194Y162379D01*
X524194Y152888D01*
X521822Y152888D02*
X526567Y152888D01*
X524194Y167124D02*
X524194Y169497D01*
X534485Y162379D02*
X541603Y162379D01*
X534485Y162379D02*
X532112Y160006D01*
X532112Y155261D01*
X534485Y152888D01*
X541603Y152888D01*
X549921Y152888D02*
X554667Y152888D01*
X549921Y152888D02*
X547549Y155261D01*
X547549Y160006D01*
X549921Y162379D01*
X554667Y162379D01*
X557039Y160006D01*
X557039Y157633D01*
X547549Y157633D01*
X562985Y152888D02*
X562985Y162379D01*
X570103Y162379D01*
X572475Y160006D01*
X572475Y152888D01*
X578421Y152888D02*
X585539Y152888D01*
X587911Y155261D01*
X585539Y157633D01*
X580793Y157633D01*
X578421Y160006D01*
X580793Y162379D01*
X587911Y162379D01*
X596229Y152888D02*
X600975Y152888D01*
X596229Y152888D02*
X593857Y155261D01*
X593857Y160006D01*
X596229Y162379D01*
X600975Y162379D01*
X603347Y160006D01*
X603347Y157633D01*
X593857Y157633D01*
X609293Y162379D02*
X611665Y162379D01*
X611665Y160006D01*
X609293Y160006D01*
X609293Y162379D01*
X609293Y155261D02*
X611665Y155261D01*
X611665Y152888D01*
X609293Y152888D01*
X609293Y155261D01*
X639565Y167124D02*
X641938Y164751D01*
X639565Y167124D02*
X634820Y167124D01*
X632447Y164751D01*
X632447Y155261D01*
X634820Y152888D01*
X639565Y152888D01*
X641938Y155261D01*
X655001Y167124D02*
X657374Y164751D01*
X655001Y167124D02*
X650256Y167124D01*
X647883Y164751D01*
X647883Y155261D01*
X650256Y152888D01*
X655001Y152888D01*
X657374Y155261D01*
X678755Y152888D02*
X678755Y167124D01*
X685873Y167124D01*
X688246Y164751D01*
X688246Y162379D01*
X685873Y160006D01*
X688246Y157633D01*
X688246Y155261D01*
X685873Y152888D01*
X678755Y152888D01*
X678755Y160006D02*
X685873Y160006D01*
X694191Y164751D02*
X694191Y167124D01*
X694191Y164751D02*
X698936Y160006D01*
X703682Y164751D01*
X703682Y167124D01*
X698936Y160006D02*
X698936Y152888D01*
X709627Y160006D02*
X719118Y160006D01*
X725063Y152888D02*
X725063Y167124D01*
X734554Y152888D01*
X734554Y167124D01*
X747617Y167124D02*
X749990Y164751D01*
X747617Y167124D02*
X742872Y167124D01*
X740499Y164751D01*
X740499Y155261D01*
X742872Y152888D01*
X747617Y152888D01*
X749990Y155261D01*
X755935Y160006D02*
X765426Y160006D01*
X778489Y167124D02*
X780862Y164751D01*
X778489Y167124D02*
X773744Y167124D01*
X771371Y164751D01*
X771371Y162379D01*
X773744Y160006D01*
X778489Y160006D01*
X780862Y157633D01*
X780862Y155261D01*
X778489Y152888D01*
X773744Y152888D01*
X771371Y155261D01*
X786807Y152888D02*
X786807Y162379D01*
X791553Y167124D01*
X796298Y162379D01*
X796298Y152888D01*
X796298Y160006D02*
X786807Y160006D01*
X824798Y152888D02*
X824798Y167124D01*
X817680Y160006D01*
X827170Y160006D01*
X833116Y155261D02*
X833116Y152888D01*
X833116Y155261D02*
X835488Y155261D01*
X835488Y152888D01*
X833116Y152888D01*
X840834Y155261D02*
X840834Y164751D01*
X843206Y167124D01*
X847952Y167124D01*
X850324Y164751D01*
X850324Y155261D01*
X847952Y152888D01*
X843206Y152888D01*
X840834Y155261D01*
X850324Y164751D01*
D15*
X284892Y86378D02*
X284892Y83838D01*
X284384Y83838D01*
X284384Y83889D01*
X234879Y83889D01*
X234879Y86200D01*
X285095Y133190D02*
X285095Y135908D01*
X284587Y135908D01*
X284587Y135933D01*
X234905Y135933D01*
X234905Y133673D01*
X285400Y118890D02*
X285400Y101872D01*
X234600Y101364D02*
X234600Y110000D01*
X234600Y118636D01*
X234600Y110000D02*
X260000Y135400D01*
X444892Y86378D02*
X444892Y83838D01*
X444384Y83838D01*
X444384Y83889D01*
X394879Y83889D01*
X394879Y86200D01*
X445095Y133190D02*
X445095Y135908D01*
X444587Y135908D01*
X444587Y135933D01*
X394905Y135933D01*
X394905Y133673D01*
X445400Y118890D02*
X445400Y101872D01*
X394600Y101364D02*
X394600Y110000D01*
X394600Y118636D01*
X394600Y110000D02*
X420000Y135400D01*
X604892Y86378D02*
X604892Y83838D01*
X604384Y83838D01*
X604384Y83889D01*
X554879Y83889D01*
X554879Y86200D01*
X605095Y133190D02*
X605095Y135908D01*
X604587Y135908D01*
X604587Y135933D01*
X554905Y135933D01*
X554905Y133673D01*
X605400Y118890D02*
X605400Y101872D01*
X554600Y101364D02*
X554600Y110000D01*
X554600Y118636D01*
X554600Y110000D02*
X580000Y135400D01*
X764892Y86378D02*
X764892Y83838D01*
X764384Y83838D01*
X764384Y83889D01*
X714879Y83889D01*
X714879Y86200D01*
X765095Y133190D02*
X765095Y135908D01*
X764587Y135908D01*
X764587Y135933D01*
X714905Y135933D01*
X714905Y133673D01*
X765400Y118890D02*
X765400Y101872D01*
X714600Y101364D02*
X714600Y110000D01*
X714600Y118636D01*
X714600Y110000D02*
X740000Y135400D01*
X364892Y253838D02*
X364892Y256378D01*
X364892Y253838D02*
X364384Y253838D01*
X364384Y253889D01*
X314879Y253889D01*
X314879Y256200D01*
X365095Y303190D02*
X365095Y305908D01*
X364587Y305908D01*
X364587Y305933D01*
X314905Y305933D01*
X314905Y303673D01*
X365400Y288890D02*
X365400Y271872D01*
X314600Y271364D02*
X314600Y280000D01*
X314600Y288636D01*
X314600Y280000D02*
X340000Y305400D01*
X524892Y256378D02*
X524892Y253838D01*
X524384Y253838D01*
X524384Y253889D01*
X474879Y253889D01*
X474879Y256200D01*
X525095Y303190D02*
X525095Y305908D01*
X524587Y305908D01*
X524587Y305933D01*
X474905Y305933D01*
X474905Y303673D01*
X525400Y288890D02*
X525400Y271872D01*
X474600Y271364D02*
X474600Y280000D01*
X474600Y288636D01*
X474600Y280000D02*
X500000Y305400D01*
X684892Y256378D02*
X684892Y253838D01*
X684384Y253838D01*
X684384Y253889D01*
X634879Y253889D01*
X634879Y256200D01*
X685095Y303190D02*
X685095Y305908D01*
X684587Y305908D01*
X684587Y305933D01*
X634905Y305933D01*
X634905Y303673D01*
X685400Y288890D02*
X685400Y271872D01*
X634600Y271364D02*
X634600Y280000D01*
X634600Y288636D01*
X634600Y280000D02*
X660000Y305400D01*
X444892Y423838D02*
X444892Y426378D01*
X444892Y423838D02*
X444384Y423838D01*
X444384Y423889D01*
X394879Y423889D01*
X394879Y426200D01*
X445095Y473190D02*
X445095Y475908D01*
X444587Y475908D01*
X444587Y475933D01*
X394905Y475933D01*
X394905Y473673D01*
X445400Y458890D02*
X445400Y441872D01*
X394600Y441364D02*
X394600Y450000D01*
X394600Y458636D01*
X394600Y450000D02*
X420000Y475400D01*
X604892Y426378D02*
X604892Y423838D01*
X604384Y423838D01*
X604384Y423889D01*
X554879Y423889D01*
X554879Y426200D01*
X605095Y473190D02*
X605095Y475908D01*
X604587Y475908D01*
X604587Y475933D01*
X554905Y475933D01*
X554905Y473673D01*
X605400Y458890D02*
X605400Y441872D01*
X554600Y441364D02*
X554600Y450000D01*
X554600Y458636D01*
X554600Y450000D02*
X580000Y475400D01*
X524892Y603838D02*
X524892Y606378D01*
X524892Y603838D02*
X524384Y603838D01*
X524384Y603889D01*
X474879Y603889D01*
X474879Y606200D01*
X525095Y653190D02*
X525095Y655908D01*
X524587Y655908D01*
X524587Y655933D01*
X474905Y655933D01*
X474905Y653673D01*
X525400Y638890D02*
X525400Y621872D01*
X474600Y621364D02*
X474600Y630000D01*
X474600Y638636D01*
X474600Y630000D02*
X500000Y655400D01*
D11*
X292510Y346200D02*
X292513Y346418D01*
X292521Y346636D01*
X292534Y346854D01*
X292553Y347071D01*
X292577Y347288D01*
X292606Y347504D01*
X292641Y347720D01*
X292681Y347934D01*
X292726Y348148D01*
X292776Y348360D01*
X292832Y348571D01*
X292893Y348781D01*
X292959Y348989D01*
X293030Y349195D01*
X293106Y349399D01*
X293187Y349602D01*
X293273Y349803D01*
X293364Y350001D01*
X293459Y350197D01*
X293560Y350391D01*
X293665Y350582D01*
X293775Y350770D01*
X293889Y350956D01*
X294008Y351139D01*
X294132Y351319D01*
X294259Y351496D01*
X294392Y351669D01*
X294528Y351840D01*
X294668Y352007D01*
X294813Y352170D01*
X294961Y352330D01*
X295114Y352486D01*
X295270Y352639D01*
X295430Y352787D01*
X295593Y352932D01*
X295760Y353072D01*
X295931Y353208D01*
X296104Y353341D01*
X296281Y353468D01*
X296461Y353592D01*
X296644Y353711D01*
X296830Y353825D01*
X297018Y353935D01*
X297209Y354040D01*
X297403Y354141D01*
X297599Y354236D01*
X297797Y354327D01*
X297998Y354413D01*
X298201Y354494D01*
X298405Y354570D01*
X298611Y354641D01*
X298819Y354707D01*
X299029Y354768D01*
X299240Y354824D01*
X299452Y354874D01*
X299666Y354919D01*
X299880Y354959D01*
X300096Y354994D01*
X300312Y355023D01*
X300529Y355047D01*
X300746Y355066D01*
X300964Y355079D01*
X301182Y355087D01*
X301400Y355090D01*
X301618Y355087D01*
X301836Y355079D01*
X302054Y355066D01*
X302271Y355047D01*
X302488Y355023D01*
X302704Y354994D01*
X302920Y354959D01*
X303134Y354919D01*
X303348Y354874D01*
X303560Y354824D01*
X303771Y354768D01*
X303981Y354707D01*
X304189Y354641D01*
X304395Y354570D01*
X304599Y354494D01*
X304802Y354413D01*
X305003Y354327D01*
X305201Y354236D01*
X305397Y354141D01*
X305591Y354040D01*
X305782Y353935D01*
X305970Y353825D01*
X306156Y353711D01*
X306339Y353592D01*
X306519Y353468D01*
X306696Y353341D01*
X306869Y353208D01*
X307040Y353072D01*
X307207Y352932D01*
X307370Y352787D01*
X307530Y352639D01*
X307686Y352486D01*
X307839Y352330D01*
X307987Y352170D01*
X308132Y352007D01*
X308272Y351840D01*
X308408Y351669D01*
X308541Y351496D01*
X308668Y351319D01*
X308792Y351139D01*
X308911Y350956D01*
X309025Y350770D01*
X309135Y350582D01*
X309240Y350391D01*
X309341Y350197D01*
X309436Y350001D01*
X309527Y349803D01*
X309613Y349602D01*
X309694Y349399D01*
X309770Y349195D01*
X309841Y348989D01*
X309907Y348781D01*
X309968Y348571D01*
X310024Y348360D01*
X310074Y348148D01*
X310119Y347934D01*
X310159Y347720D01*
X310194Y347504D01*
X310223Y347288D01*
X310247Y347071D01*
X310266Y346854D01*
X310279Y346636D01*
X310287Y346418D01*
X310290Y346200D01*
X310287Y345982D01*
X310279Y345764D01*
X310266Y345546D01*
X310247Y345329D01*
X310223Y345112D01*
X310194Y344896D01*
X310159Y344680D01*
X310119Y344466D01*
X310074Y344252D01*
X310024Y344040D01*
X309968Y343829D01*
X309907Y343619D01*
X309841Y343411D01*
X309770Y343205D01*
X309694Y343001D01*
X309613Y342798D01*
X309527Y342597D01*
X309436Y342399D01*
X309341Y342203D01*
X309240Y342009D01*
X309135Y341818D01*
X309025Y341630D01*
X308911Y341444D01*
X308792Y341261D01*
X308668Y341081D01*
X308541Y340904D01*
X308408Y340731D01*
X308272Y340560D01*
X308132Y340393D01*
X307987Y340230D01*
X307839Y340070D01*
X307686Y339914D01*
X307530Y339761D01*
X307370Y339613D01*
X307207Y339468D01*
X307040Y339328D01*
X306869Y339192D01*
X306696Y339059D01*
X306519Y338932D01*
X306339Y338808D01*
X306156Y338689D01*
X305970Y338575D01*
X305782Y338465D01*
X305591Y338360D01*
X305397Y338259D01*
X305201Y338164D01*
X305003Y338073D01*
X304802Y337987D01*
X304599Y337906D01*
X304395Y337830D01*
X304189Y337759D01*
X303981Y337693D01*
X303771Y337632D01*
X303560Y337576D01*
X303348Y337526D01*
X303134Y337481D01*
X302920Y337441D01*
X302704Y337406D01*
X302488Y337377D01*
X302271Y337353D01*
X302054Y337334D01*
X301836Y337321D01*
X301618Y337313D01*
X301400Y337310D01*
X301182Y337313D01*
X300964Y337321D01*
X300746Y337334D01*
X300529Y337353D01*
X300312Y337377D01*
X300096Y337406D01*
X299880Y337441D01*
X299666Y337481D01*
X299452Y337526D01*
X299240Y337576D01*
X299029Y337632D01*
X298819Y337693D01*
X298611Y337759D01*
X298405Y337830D01*
X298201Y337906D01*
X297998Y337987D01*
X297797Y338073D01*
X297599Y338164D01*
X297403Y338259D01*
X297209Y338360D01*
X297018Y338465D01*
X296830Y338575D01*
X296644Y338689D01*
X296461Y338808D01*
X296281Y338932D01*
X296104Y339059D01*
X295931Y339192D01*
X295760Y339328D01*
X295593Y339468D01*
X295430Y339613D01*
X295270Y339761D01*
X295114Y339914D01*
X294961Y340070D01*
X294813Y340230D01*
X294668Y340393D01*
X294528Y340560D01*
X294392Y340731D01*
X294259Y340904D01*
X294132Y341081D01*
X294008Y341261D01*
X293889Y341444D01*
X293775Y341630D01*
X293665Y341818D01*
X293560Y342009D01*
X293459Y342203D01*
X293364Y342399D01*
X293273Y342597D01*
X293187Y342798D01*
X293106Y343001D01*
X293030Y343205D01*
X292959Y343411D01*
X292893Y343619D01*
X292832Y343829D01*
X292776Y344040D01*
X292726Y344252D01*
X292681Y344466D01*
X292641Y344680D01*
X292606Y344896D01*
X292577Y345112D01*
X292553Y345329D01*
X292534Y345546D01*
X292521Y345764D01*
X292513Y345982D01*
X292510Y346200D01*
X292510Y193800D02*
X292513Y194018D01*
X292521Y194236D01*
X292534Y194454D01*
X292553Y194671D01*
X292577Y194888D01*
X292606Y195104D01*
X292641Y195320D01*
X292681Y195534D01*
X292726Y195748D01*
X292776Y195960D01*
X292832Y196171D01*
X292893Y196381D01*
X292959Y196589D01*
X293030Y196795D01*
X293106Y196999D01*
X293187Y197202D01*
X293273Y197403D01*
X293364Y197601D01*
X293459Y197797D01*
X293560Y197991D01*
X293665Y198182D01*
X293775Y198370D01*
X293889Y198556D01*
X294008Y198739D01*
X294132Y198919D01*
X294259Y199096D01*
X294392Y199269D01*
X294528Y199440D01*
X294668Y199607D01*
X294813Y199770D01*
X294961Y199930D01*
X295114Y200086D01*
X295270Y200239D01*
X295430Y200387D01*
X295593Y200532D01*
X295760Y200672D01*
X295931Y200808D01*
X296104Y200941D01*
X296281Y201068D01*
X296461Y201192D01*
X296644Y201311D01*
X296830Y201425D01*
X297018Y201535D01*
X297209Y201640D01*
X297403Y201741D01*
X297599Y201836D01*
X297797Y201927D01*
X297998Y202013D01*
X298201Y202094D01*
X298405Y202170D01*
X298611Y202241D01*
X298819Y202307D01*
X299029Y202368D01*
X299240Y202424D01*
X299452Y202474D01*
X299666Y202519D01*
X299880Y202559D01*
X300096Y202594D01*
X300312Y202623D01*
X300529Y202647D01*
X300746Y202666D01*
X300964Y202679D01*
X301182Y202687D01*
X301400Y202690D01*
X301618Y202687D01*
X301836Y202679D01*
X302054Y202666D01*
X302271Y202647D01*
X302488Y202623D01*
X302704Y202594D01*
X302920Y202559D01*
X303134Y202519D01*
X303348Y202474D01*
X303560Y202424D01*
X303771Y202368D01*
X303981Y202307D01*
X304189Y202241D01*
X304395Y202170D01*
X304599Y202094D01*
X304802Y202013D01*
X305003Y201927D01*
X305201Y201836D01*
X305397Y201741D01*
X305591Y201640D01*
X305782Y201535D01*
X305970Y201425D01*
X306156Y201311D01*
X306339Y201192D01*
X306519Y201068D01*
X306696Y200941D01*
X306869Y200808D01*
X307040Y200672D01*
X307207Y200532D01*
X307370Y200387D01*
X307530Y200239D01*
X307686Y200086D01*
X307839Y199930D01*
X307987Y199770D01*
X308132Y199607D01*
X308272Y199440D01*
X308408Y199269D01*
X308541Y199096D01*
X308668Y198919D01*
X308792Y198739D01*
X308911Y198556D01*
X309025Y198370D01*
X309135Y198182D01*
X309240Y197991D01*
X309341Y197797D01*
X309436Y197601D01*
X309527Y197403D01*
X309613Y197202D01*
X309694Y196999D01*
X309770Y196795D01*
X309841Y196589D01*
X309907Y196381D01*
X309968Y196171D01*
X310024Y195960D01*
X310074Y195748D01*
X310119Y195534D01*
X310159Y195320D01*
X310194Y195104D01*
X310223Y194888D01*
X310247Y194671D01*
X310266Y194454D01*
X310279Y194236D01*
X310287Y194018D01*
X310290Y193800D01*
X310287Y193582D01*
X310279Y193364D01*
X310266Y193146D01*
X310247Y192929D01*
X310223Y192712D01*
X310194Y192496D01*
X310159Y192280D01*
X310119Y192066D01*
X310074Y191852D01*
X310024Y191640D01*
X309968Y191429D01*
X309907Y191219D01*
X309841Y191011D01*
X309770Y190805D01*
X309694Y190601D01*
X309613Y190398D01*
X309527Y190197D01*
X309436Y189999D01*
X309341Y189803D01*
X309240Y189609D01*
X309135Y189418D01*
X309025Y189230D01*
X308911Y189044D01*
X308792Y188861D01*
X308668Y188681D01*
X308541Y188504D01*
X308408Y188331D01*
X308272Y188160D01*
X308132Y187993D01*
X307987Y187830D01*
X307839Y187670D01*
X307686Y187514D01*
X307530Y187361D01*
X307370Y187213D01*
X307207Y187068D01*
X307040Y186928D01*
X306869Y186792D01*
X306696Y186659D01*
X306519Y186532D01*
X306339Y186408D01*
X306156Y186289D01*
X305970Y186175D01*
X305782Y186065D01*
X305591Y185960D01*
X305397Y185859D01*
X305201Y185764D01*
X305003Y185673D01*
X304802Y185587D01*
X304599Y185506D01*
X304395Y185430D01*
X304189Y185359D01*
X303981Y185293D01*
X303771Y185232D01*
X303560Y185176D01*
X303348Y185126D01*
X303134Y185081D01*
X302920Y185041D01*
X302704Y185006D01*
X302488Y184977D01*
X302271Y184953D01*
X302054Y184934D01*
X301836Y184921D01*
X301618Y184913D01*
X301400Y184910D01*
X301182Y184913D01*
X300964Y184921D01*
X300746Y184934D01*
X300529Y184953D01*
X300312Y184977D01*
X300096Y185006D01*
X299880Y185041D01*
X299666Y185081D01*
X299452Y185126D01*
X299240Y185176D01*
X299029Y185232D01*
X298819Y185293D01*
X298611Y185359D01*
X298405Y185430D01*
X298201Y185506D01*
X297998Y185587D01*
X297797Y185673D01*
X297599Y185764D01*
X297403Y185859D01*
X297209Y185960D01*
X297018Y186065D01*
X296830Y186175D01*
X296644Y186289D01*
X296461Y186408D01*
X296281Y186532D01*
X296104Y186659D01*
X295931Y186792D01*
X295760Y186928D01*
X295593Y187068D01*
X295430Y187213D01*
X295270Y187361D01*
X295114Y187514D01*
X294961Y187670D01*
X294813Y187830D01*
X294668Y187993D01*
X294528Y188160D01*
X294392Y188331D01*
X294259Y188504D01*
X294132Y188681D01*
X294008Y188861D01*
X293889Y189044D01*
X293775Y189230D01*
X293665Y189418D01*
X293560Y189609D01*
X293459Y189803D01*
X293364Y189999D01*
X293273Y190197D01*
X293187Y190398D01*
X293106Y190601D01*
X293030Y190805D01*
X292959Y191011D01*
X292893Y191219D01*
X292832Y191429D01*
X292776Y191640D01*
X292726Y191852D01*
X292681Y192066D01*
X292641Y192280D01*
X292606Y192496D01*
X292577Y192712D01*
X292553Y192929D01*
X292534Y193146D01*
X292521Y193364D01*
X292513Y193582D01*
X292510Y193800D01*
X698910Y193800D02*
X698913Y194018D01*
X698921Y194236D01*
X698934Y194454D01*
X698953Y194671D01*
X698977Y194888D01*
X699006Y195104D01*
X699041Y195320D01*
X699081Y195534D01*
X699126Y195748D01*
X699176Y195960D01*
X699232Y196171D01*
X699293Y196381D01*
X699359Y196589D01*
X699430Y196795D01*
X699506Y196999D01*
X699587Y197202D01*
X699673Y197403D01*
X699764Y197601D01*
X699859Y197797D01*
X699960Y197991D01*
X700065Y198182D01*
X700175Y198370D01*
X700289Y198556D01*
X700408Y198739D01*
X700532Y198919D01*
X700659Y199096D01*
X700792Y199269D01*
X700928Y199440D01*
X701068Y199607D01*
X701213Y199770D01*
X701361Y199930D01*
X701514Y200086D01*
X701670Y200239D01*
X701830Y200387D01*
X701993Y200532D01*
X702160Y200672D01*
X702331Y200808D01*
X702504Y200941D01*
X702681Y201068D01*
X702861Y201192D01*
X703044Y201311D01*
X703230Y201425D01*
X703418Y201535D01*
X703609Y201640D01*
X703803Y201741D01*
X703999Y201836D01*
X704197Y201927D01*
X704398Y202013D01*
X704601Y202094D01*
X704805Y202170D01*
X705011Y202241D01*
X705219Y202307D01*
X705429Y202368D01*
X705640Y202424D01*
X705852Y202474D01*
X706066Y202519D01*
X706280Y202559D01*
X706496Y202594D01*
X706712Y202623D01*
X706929Y202647D01*
X707146Y202666D01*
X707364Y202679D01*
X707582Y202687D01*
X707800Y202690D01*
X708018Y202687D01*
X708236Y202679D01*
X708454Y202666D01*
X708671Y202647D01*
X708888Y202623D01*
X709104Y202594D01*
X709320Y202559D01*
X709534Y202519D01*
X709748Y202474D01*
X709960Y202424D01*
X710171Y202368D01*
X710381Y202307D01*
X710589Y202241D01*
X710795Y202170D01*
X710999Y202094D01*
X711202Y202013D01*
X711403Y201927D01*
X711601Y201836D01*
X711797Y201741D01*
X711991Y201640D01*
X712182Y201535D01*
X712370Y201425D01*
X712556Y201311D01*
X712739Y201192D01*
X712919Y201068D01*
X713096Y200941D01*
X713269Y200808D01*
X713440Y200672D01*
X713607Y200532D01*
X713770Y200387D01*
X713930Y200239D01*
X714086Y200086D01*
X714239Y199930D01*
X714387Y199770D01*
X714532Y199607D01*
X714672Y199440D01*
X714808Y199269D01*
X714941Y199096D01*
X715068Y198919D01*
X715192Y198739D01*
X715311Y198556D01*
X715425Y198370D01*
X715535Y198182D01*
X715640Y197991D01*
X715741Y197797D01*
X715836Y197601D01*
X715927Y197403D01*
X716013Y197202D01*
X716094Y196999D01*
X716170Y196795D01*
X716241Y196589D01*
X716307Y196381D01*
X716368Y196171D01*
X716424Y195960D01*
X716474Y195748D01*
X716519Y195534D01*
X716559Y195320D01*
X716594Y195104D01*
X716623Y194888D01*
X716647Y194671D01*
X716666Y194454D01*
X716679Y194236D01*
X716687Y194018D01*
X716690Y193800D01*
X716687Y193582D01*
X716679Y193364D01*
X716666Y193146D01*
X716647Y192929D01*
X716623Y192712D01*
X716594Y192496D01*
X716559Y192280D01*
X716519Y192066D01*
X716474Y191852D01*
X716424Y191640D01*
X716368Y191429D01*
X716307Y191219D01*
X716241Y191011D01*
X716170Y190805D01*
X716094Y190601D01*
X716013Y190398D01*
X715927Y190197D01*
X715836Y189999D01*
X715741Y189803D01*
X715640Y189609D01*
X715535Y189418D01*
X715425Y189230D01*
X715311Y189044D01*
X715192Y188861D01*
X715068Y188681D01*
X714941Y188504D01*
X714808Y188331D01*
X714672Y188160D01*
X714532Y187993D01*
X714387Y187830D01*
X714239Y187670D01*
X714086Y187514D01*
X713930Y187361D01*
X713770Y187213D01*
X713607Y187068D01*
X713440Y186928D01*
X713269Y186792D01*
X713096Y186659D01*
X712919Y186532D01*
X712739Y186408D01*
X712556Y186289D01*
X712370Y186175D01*
X712182Y186065D01*
X711991Y185960D01*
X711797Y185859D01*
X711601Y185764D01*
X711403Y185673D01*
X711202Y185587D01*
X710999Y185506D01*
X710795Y185430D01*
X710589Y185359D01*
X710381Y185293D01*
X710171Y185232D01*
X709960Y185176D01*
X709748Y185126D01*
X709534Y185081D01*
X709320Y185041D01*
X709104Y185006D01*
X708888Y184977D01*
X708671Y184953D01*
X708454Y184934D01*
X708236Y184921D01*
X708018Y184913D01*
X707800Y184910D01*
X707582Y184913D01*
X707364Y184921D01*
X707146Y184934D01*
X706929Y184953D01*
X706712Y184977D01*
X706496Y185006D01*
X706280Y185041D01*
X706066Y185081D01*
X705852Y185126D01*
X705640Y185176D01*
X705429Y185232D01*
X705219Y185293D01*
X705011Y185359D01*
X704805Y185430D01*
X704601Y185506D01*
X704398Y185587D01*
X704197Y185673D01*
X703999Y185764D01*
X703803Y185859D01*
X703609Y185960D01*
X703418Y186065D01*
X703230Y186175D01*
X703044Y186289D01*
X702861Y186408D01*
X702681Y186532D01*
X702504Y186659D01*
X702331Y186792D01*
X702160Y186928D01*
X701993Y187068D01*
X701830Y187213D01*
X701670Y187361D01*
X701514Y187514D01*
X701361Y187670D01*
X701213Y187830D01*
X701068Y187993D01*
X700928Y188160D01*
X700792Y188331D01*
X700659Y188504D01*
X700532Y188681D01*
X700408Y188861D01*
X700289Y189044D01*
X700175Y189230D01*
X700065Y189418D01*
X699960Y189609D01*
X699859Y189803D01*
X699764Y189999D01*
X699673Y190197D01*
X699587Y190398D01*
X699506Y190601D01*
X699430Y190805D01*
X699359Y191011D01*
X699293Y191219D01*
X699232Y191429D01*
X699176Y191640D01*
X699126Y191852D01*
X699081Y192066D01*
X699041Y192280D01*
X699006Y192496D01*
X698977Y192712D01*
X698953Y192929D01*
X698934Y193146D01*
X698921Y193364D01*
X698913Y193582D01*
X698910Y193800D01*
X698910Y346200D02*
X698913Y346418D01*
X698921Y346636D01*
X698934Y346854D01*
X698953Y347071D01*
X698977Y347288D01*
X699006Y347504D01*
X699041Y347720D01*
X699081Y347934D01*
X699126Y348148D01*
X699176Y348360D01*
X699232Y348571D01*
X699293Y348781D01*
X699359Y348989D01*
X699430Y349195D01*
X699506Y349399D01*
X699587Y349602D01*
X699673Y349803D01*
X699764Y350001D01*
X699859Y350197D01*
X699960Y350391D01*
X700065Y350582D01*
X700175Y350770D01*
X700289Y350956D01*
X700408Y351139D01*
X700532Y351319D01*
X700659Y351496D01*
X700792Y351669D01*
X700928Y351840D01*
X701068Y352007D01*
X701213Y352170D01*
X701361Y352330D01*
X701514Y352486D01*
X701670Y352639D01*
X701830Y352787D01*
X701993Y352932D01*
X702160Y353072D01*
X702331Y353208D01*
X702504Y353341D01*
X702681Y353468D01*
X702861Y353592D01*
X703044Y353711D01*
X703230Y353825D01*
X703418Y353935D01*
X703609Y354040D01*
X703803Y354141D01*
X703999Y354236D01*
X704197Y354327D01*
X704398Y354413D01*
X704601Y354494D01*
X704805Y354570D01*
X705011Y354641D01*
X705219Y354707D01*
X705429Y354768D01*
X705640Y354824D01*
X705852Y354874D01*
X706066Y354919D01*
X706280Y354959D01*
X706496Y354994D01*
X706712Y355023D01*
X706929Y355047D01*
X707146Y355066D01*
X707364Y355079D01*
X707582Y355087D01*
X707800Y355090D01*
X708018Y355087D01*
X708236Y355079D01*
X708454Y355066D01*
X708671Y355047D01*
X708888Y355023D01*
X709104Y354994D01*
X709320Y354959D01*
X709534Y354919D01*
X709748Y354874D01*
X709960Y354824D01*
X710171Y354768D01*
X710381Y354707D01*
X710589Y354641D01*
X710795Y354570D01*
X710999Y354494D01*
X711202Y354413D01*
X711403Y354327D01*
X711601Y354236D01*
X711797Y354141D01*
X711991Y354040D01*
X712182Y353935D01*
X712370Y353825D01*
X712556Y353711D01*
X712739Y353592D01*
X712919Y353468D01*
X713096Y353341D01*
X713269Y353208D01*
X713440Y353072D01*
X713607Y352932D01*
X713770Y352787D01*
X713930Y352639D01*
X714086Y352486D01*
X714239Y352330D01*
X714387Y352170D01*
X714532Y352007D01*
X714672Y351840D01*
X714808Y351669D01*
X714941Y351496D01*
X715068Y351319D01*
X715192Y351139D01*
X715311Y350956D01*
X715425Y350770D01*
X715535Y350582D01*
X715640Y350391D01*
X715741Y350197D01*
X715836Y350001D01*
X715927Y349803D01*
X716013Y349602D01*
X716094Y349399D01*
X716170Y349195D01*
X716241Y348989D01*
X716307Y348781D01*
X716368Y348571D01*
X716424Y348360D01*
X716474Y348148D01*
X716519Y347934D01*
X716559Y347720D01*
X716594Y347504D01*
X716623Y347288D01*
X716647Y347071D01*
X716666Y346854D01*
X716679Y346636D01*
X716687Y346418D01*
X716690Y346200D01*
X716687Y345982D01*
X716679Y345764D01*
X716666Y345546D01*
X716647Y345329D01*
X716623Y345112D01*
X716594Y344896D01*
X716559Y344680D01*
X716519Y344466D01*
X716474Y344252D01*
X716424Y344040D01*
X716368Y343829D01*
X716307Y343619D01*
X716241Y343411D01*
X716170Y343205D01*
X716094Y343001D01*
X716013Y342798D01*
X715927Y342597D01*
X715836Y342399D01*
X715741Y342203D01*
X715640Y342009D01*
X715535Y341818D01*
X715425Y341630D01*
X715311Y341444D01*
X715192Y341261D01*
X715068Y341081D01*
X714941Y340904D01*
X714808Y340731D01*
X714672Y340560D01*
X714532Y340393D01*
X714387Y340230D01*
X714239Y340070D01*
X714086Y339914D01*
X713930Y339761D01*
X713770Y339613D01*
X713607Y339468D01*
X713440Y339328D01*
X713269Y339192D01*
X713096Y339059D01*
X712919Y338932D01*
X712739Y338808D01*
X712556Y338689D01*
X712370Y338575D01*
X712182Y338465D01*
X711991Y338360D01*
X711797Y338259D01*
X711601Y338164D01*
X711403Y338073D01*
X711202Y337987D01*
X710999Y337906D01*
X710795Y337830D01*
X710589Y337759D01*
X710381Y337693D01*
X710171Y337632D01*
X709960Y337576D01*
X709748Y337526D01*
X709534Y337481D01*
X709320Y337441D01*
X709104Y337406D01*
X708888Y337377D01*
X708671Y337353D01*
X708454Y337334D01*
X708236Y337321D01*
X708018Y337313D01*
X707800Y337310D01*
X707582Y337313D01*
X707364Y337321D01*
X707146Y337334D01*
X706929Y337353D01*
X706712Y337377D01*
X706496Y337406D01*
X706280Y337441D01*
X706066Y337481D01*
X705852Y337526D01*
X705640Y337576D01*
X705429Y337632D01*
X705219Y337693D01*
X705011Y337759D01*
X704805Y337830D01*
X704601Y337906D01*
X704398Y337987D01*
X704197Y338073D01*
X703999Y338164D01*
X703803Y338259D01*
X703609Y338360D01*
X703418Y338465D01*
X703230Y338575D01*
X703044Y338689D01*
X702861Y338808D01*
X702681Y338932D01*
X702504Y339059D01*
X702331Y339192D01*
X702160Y339328D01*
X701993Y339468D01*
X701830Y339613D01*
X701670Y339761D01*
X701514Y339914D01*
X701361Y340070D01*
X701213Y340230D01*
X701068Y340393D01*
X700928Y340560D01*
X700792Y340731D01*
X700659Y340904D01*
X700532Y341081D01*
X700408Y341261D01*
X700289Y341444D01*
X700175Y341630D01*
X700065Y341818D01*
X699960Y342009D01*
X699859Y342203D01*
X699764Y342399D01*
X699673Y342597D01*
X699587Y342798D01*
X699506Y343001D01*
X699430Y343205D01*
X699359Y343411D01*
X699293Y343619D01*
X699232Y343829D01*
X699176Y344040D01*
X699126Y344252D01*
X699081Y344466D01*
X699041Y344680D01*
X699006Y344896D01*
X698977Y345112D01*
X698953Y345329D01*
X698934Y345546D01*
X698921Y345764D01*
X698913Y345982D01*
X698910Y346200D01*
M02*
